%TF.GenerationSoftware,KiCad,Pcbnew,6.0.0*%
%TF.CreationDate,2022-09-24T12:18:35+02:00*%
%TF.ProjectId,pmod-flash,706d6f64-2d66-46c6-9173-682e6b696361,1*%
%TF.SameCoordinates,Original*%
%TF.FileFunction,Copper,L1,Top*%
%TF.FilePolarity,Positive*%
%FSLAX46Y46*%
G04 Gerber Fmt 4.6, Leading zero omitted, Abs format (unit mm)*
G04 Created by KiCad (PCBNEW 6.0.0) date 2022-09-24 12:18:35*
%MOMM*%
%LPD*%
G01*
G04 APERTURE LIST*
%ADD10C,0.101600*%
%TA.AperFunction,NonConductor*%
%ADD11C,0.101600*%
%TD*%
%TA.AperFunction,ComponentPad*%
%ADD12R,2.000000X1.900000*%
%TD*%
%TA.AperFunction,ComponentPad*%
%ADD13C,1.900000*%
%TD*%
%TA.AperFunction,SMDPad,CuDef*%
%ADD14R,0.889000X1.397000*%
%TD*%
%TA.AperFunction,SMDPad,CuDef*%
%ADD15R,0.635000X1.143000*%
%TD*%
%TA.AperFunction,SMDPad,CuDef*%
%ADD16R,0.500000X1.000000*%
%TD*%
%TA.AperFunction,SMDPad,CuDef*%
%ADD17R,4.300000X3.400000*%
%TD*%
%TA.AperFunction,ViaPad*%
%ADD18C,0.711200*%
%TD*%
%TA.AperFunction,Conductor*%
%ADD19C,0.203200*%
%TD*%
%TA.AperFunction,Conductor*%
%ADD20C,0.406400*%
%TD*%
%TA.AperFunction,Conductor*%
%ADD21C,1.524000*%
%TD*%
G04 APERTURE END LIST*
D10*
D11*
X161133333Y-113250000D02*
X161100000Y-113283333D01*
X161000000Y-113316666D01*
X160933333Y-113316666D01*
X160833333Y-113283333D01*
X160766666Y-113216666D01*
X160733333Y-113150000D01*
X160700000Y-113016666D01*
X160700000Y-112916666D01*
X160733333Y-112783333D01*
X160766666Y-112716666D01*
X160833333Y-112650000D01*
X160933333Y-112616666D01*
X161000000Y-112616666D01*
X161100000Y-112650000D01*
X161133333Y-112683333D01*
X161833333Y-113250000D02*
X161800000Y-113283333D01*
X161700000Y-113316666D01*
X161633333Y-113316666D01*
X161533333Y-113283333D01*
X161466666Y-113216666D01*
X161433333Y-113150000D01*
X161400000Y-113016666D01*
X161400000Y-112916666D01*
X161433333Y-112783333D01*
X161466666Y-112716666D01*
X161533333Y-112650000D01*
X161633333Y-112616666D01*
X161700000Y-112616666D01*
X161800000Y-112650000D01*
X161833333Y-112683333D01*
X162133333Y-113050000D02*
X162666666Y-113050000D01*
X163000000Y-113316666D02*
X163000000Y-112616666D01*
X163000000Y-112883333D02*
X163066666Y-112850000D01*
X163200000Y-112850000D01*
X163266666Y-112883333D01*
X163300000Y-112916666D01*
X163333333Y-112983333D01*
X163333333Y-113183333D01*
X163300000Y-113250000D01*
X163266666Y-113283333D01*
X163200000Y-113316666D01*
X163066666Y-113316666D01*
X163000000Y-113283333D01*
X163566666Y-112850000D02*
X163733333Y-113316666D01*
X163900000Y-112850000D02*
X163733333Y-113316666D01*
X163666666Y-113483333D01*
X163633333Y-113516666D01*
X163566666Y-113550000D01*
X164166666Y-113050000D02*
X164700000Y-113050000D01*
X165000000Y-113283333D02*
X165100000Y-113316666D01*
X165266666Y-113316666D01*
X165333333Y-113283333D01*
X165366666Y-113250000D01*
X165400000Y-113183333D01*
X165400000Y-113116666D01*
X165366666Y-113050000D01*
X165333333Y-113016666D01*
X165266666Y-112983333D01*
X165133333Y-112950000D01*
X165066666Y-112916666D01*
X165033333Y-112883333D01*
X165000000Y-112816666D01*
X165000000Y-112750000D01*
X165033333Y-112683333D01*
X165066666Y-112650000D01*
X165133333Y-112616666D01*
X165300000Y-112616666D01*
X165400000Y-112650000D01*
X165666666Y-113116666D02*
X166000000Y-113116666D01*
X165600000Y-113316666D02*
X165833333Y-112616666D01*
X166066666Y-113316666D01*
D10*
D11*
X157700000Y-113316666D02*
X157700000Y-112850000D01*
X157700000Y-112983333D02*
X157733333Y-112916666D01*
X157766666Y-112883333D01*
X157833333Y-112850000D01*
X157900000Y-112850000D01*
X158400000Y-113283333D02*
X158333333Y-113316666D01*
X158200000Y-113316666D01*
X158133333Y-113283333D01*
X158100000Y-113216666D01*
X158100000Y-112950000D01*
X158133333Y-112883333D01*
X158200000Y-112850000D01*
X158333333Y-112850000D01*
X158400000Y-112883333D01*
X158433333Y-112950000D01*
X158433333Y-113016666D01*
X158100000Y-113083333D01*
X158666666Y-112850000D02*
X158833333Y-113316666D01*
X159000000Y-112850000D01*
X159633333Y-113316666D02*
X159233333Y-113316666D01*
X159433333Y-113316666D02*
X159433333Y-112616666D01*
X159366666Y-112716666D01*
X159300000Y-112783333D01*
X159233333Y-112816666D01*
D10*
D11*
X159333333Y-112066666D02*
X159333333Y-111366666D01*
X159600000Y-111366666D01*
X159666666Y-111400000D01*
X159700000Y-111433333D01*
X159733333Y-111500000D01*
X159733333Y-111600000D01*
X159700000Y-111666666D01*
X159666666Y-111700000D01*
X159600000Y-111733333D01*
X159333333Y-111733333D01*
X160033333Y-112066666D02*
X160033333Y-111366666D01*
X160266666Y-111866666D01*
X160500000Y-111366666D01*
X160500000Y-112066666D01*
X160966666Y-111366666D02*
X161100000Y-111366666D01*
X161166666Y-111400000D01*
X161233333Y-111466666D01*
X161266666Y-111600000D01*
X161266666Y-111833333D01*
X161233333Y-111966666D01*
X161166666Y-112033333D01*
X161100000Y-112066666D01*
X160966666Y-112066666D01*
X160900000Y-112033333D01*
X160833333Y-111966666D01*
X160800000Y-111833333D01*
X160800000Y-111600000D01*
X160833333Y-111466666D01*
X160900000Y-111400000D01*
X160966666Y-111366666D01*
X161566666Y-112066666D02*
X161566666Y-111366666D01*
X161733333Y-111366666D01*
X161833333Y-111400000D01*
X161900000Y-111466666D01*
X161933333Y-111533333D01*
X161966666Y-111666666D01*
X161966666Y-111766666D01*
X161933333Y-111900000D01*
X161900000Y-111966666D01*
X161833333Y-112033333D01*
X161733333Y-112066666D01*
X161566666Y-112066666D01*
X162266666Y-111800000D02*
X162800000Y-111800000D01*
X163366666Y-111700000D02*
X163133333Y-111700000D01*
X163133333Y-112066666D02*
X163133333Y-111366666D01*
X163466666Y-111366666D01*
X164066666Y-112066666D02*
X163733333Y-112066666D01*
X163733333Y-111366666D01*
X164266666Y-111866666D02*
X164600000Y-111866666D01*
X164200000Y-112066666D02*
X164433333Y-111366666D01*
X164666666Y-112066666D01*
X164866666Y-112033333D02*
X164966666Y-112066666D01*
X165133333Y-112066666D01*
X165200000Y-112033333D01*
X165233333Y-112000000D01*
X165266666Y-111933333D01*
X165266666Y-111866666D01*
X165233333Y-111800000D01*
X165200000Y-111766666D01*
X165133333Y-111733333D01*
X165000000Y-111700000D01*
X164933333Y-111666666D01*
X164900000Y-111633333D01*
X164866666Y-111566666D01*
X164866666Y-111500000D01*
X164900000Y-111433333D01*
X164933333Y-111400000D01*
X165000000Y-111366666D01*
X165166666Y-111366666D01*
X165266666Y-111400000D01*
X165566666Y-112066666D02*
X165566666Y-111366666D01*
X165566666Y-111700000D02*
X165966666Y-111700000D01*
X165966666Y-112066666D02*
X165966666Y-111366666D01*
D12*
%TO.P,P1,1,IO1*%
%TO.N,PMOD_CS*%
X136040000Y-98650000D03*
D13*
%TO.P,P1,2,IO2*%
%TO.N,PMOD_MOSI*%
X136040000Y-101190000D03*
%TO.P,P1,3,IO3*%
%TO.N,PMOD_MISO*%
X136040000Y-103730000D03*
%TO.P,P1,4,IO4*%
%TO.N,PMOD_SCK*%
X136040000Y-106270000D03*
%TO.P,P1,5*%
%TO.N,GND*%
X136040000Y-108810000D03*
%TO.P,P1,6*%
%TO.N,+VPMOD*%
X136040000Y-111350000D03*
%TO.P,P1,7,IO5*%
%TO.N,unconnected-(P1-Pad7)*%
X133500000Y-98650000D03*
%TO.P,P1,8,IO6*%
%TO.N,unconnected-(P1-Pad8)*%
X133500000Y-101190000D03*
%TO.P,P1,9,IO7*%
%TO.N,PMOD_CS2*%
X133500000Y-103730000D03*
%TO.P,P1,10,IO8*%
%TO.N,unconnected-(P1-Pad10)*%
X133500000Y-106270000D03*
%TO.P,P1,11*%
%TO.N,GND*%
X133500000Y-108810000D03*
%TO.P,P1,12*%
%TO.N,+VPMOD*%
X133500000Y-111350000D03*
%TD*%
D14*
%TO.P,C1,1*%
%TO.N,+VPMOD*%
X133452500Y-114000000D03*
%TO.P,C1,2*%
%TO.N,GND*%
X131547500Y-114000000D03*
%TD*%
D15*
%TO.P,C2,1*%
%TO.N,+3.3V*%
X145612000Y-99000000D03*
%TO.P,C2,2*%
%TO.N,GND*%
X144088000Y-99000000D03*
%TD*%
D16*
%TO.P,U2,1,CS*%
%TO.N,PMOD_CS2*%
X156095000Y-109000000D03*
%TO.P,U2,2,IO1_DO*%
%TO.N,PMOD_MISO*%
X157365000Y-109000000D03*
%TO.P,U2,3,IO2_WP*%
%TO.N,+3.3V*%
X158635000Y-109000000D03*
%TO.P,U2,4*%
%TO.N,GND*%
X159905000Y-109000000D03*
%TO.P,U2,5,IO0_DI*%
%TO.N,PMOD_MOSI*%
X159905000Y-101000000D03*
%TO.P,U2,6,CLK*%
%TO.N,PMOD_SCK*%
X158635000Y-101000000D03*
%TO.P,U2,7,IO3_HOLD*%
%TO.N,+3.3V*%
X157365000Y-101000000D03*
%TO.P,U2,8*%
X156095000Y-101000000D03*
D17*
%TO.P,U2,PAD*%
%TO.N,N/C*%
X158000000Y-105000000D03*
%TD*%
D16*
%TO.P,U1,1,CS*%
%TO.N,PMOD_CS*%
X145595000Y-109000000D03*
%TO.P,U1,2,IO1_DO*%
%TO.N,PMOD_MISO*%
X146865000Y-109000000D03*
%TO.P,U1,3,IO2_WP*%
%TO.N,+3.3V*%
X148135000Y-109000000D03*
%TO.P,U1,4*%
%TO.N,GND*%
X149405000Y-109000000D03*
%TO.P,U1,5,IO0_DI*%
%TO.N,PMOD_MOSI*%
X149405000Y-101000000D03*
%TO.P,U1,6,CLK*%
%TO.N,PMOD_SCK*%
X148135000Y-101000000D03*
%TO.P,U1,7,IO3_HOLD*%
%TO.N,+3.3V*%
X146865000Y-101000000D03*
%TO.P,U1,8*%
X145595000Y-101000000D03*
D17*
%TO.P,U1,PAD*%
%TO.N,N/C*%
X147500000Y-105000000D03*
%TD*%
D15*
%TO.P,C3,1*%
%TO.N,+3.3V*%
X156112000Y-99000000D03*
%TO.P,C3,2*%
%TO.N,GND*%
X154588000Y-99000000D03*
%TD*%
%TO.P,L1,1,1*%
%TO.N,+VPMOD*%
X134988000Y-114000000D03*
%TO.P,L1,2,2*%
%TO.N,+3.3V*%
X136512000Y-114000000D03*
%TD*%
D18*
%TO.N,PMOD_CS*%
X143250000Y-100250000D03*
%TO.N,PMOD_MOSI*%
X149410000Y-99000000D03*
X159900000Y-99000000D03*
%TO.N,PMOD_MISO*%
X146860000Y-110100000D03*
X157360000Y-110050000D03*
%TO.N,PMOD_SCK*%
X148140000Y-99900000D03*
X158630000Y-99900000D03*
%TO.N,GND*%
X130250000Y-114000000D03*
X157500000Y-95400000D03*
X144000000Y-95400000D03*
X130250000Y-96000000D03*
X167000000Y-109800000D03*
X135000000Y-95400000D03*
X167000000Y-100200000D03*
X148500000Y-114600000D03*
X167000000Y-114600000D03*
X167000000Y-105000000D03*
X162000000Y-95400000D03*
X144000000Y-114600000D03*
X130250000Y-105000000D03*
X149400000Y-110100000D03*
X139500000Y-95400000D03*
X162000000Y-114600000D03*
X153000000Y-114600000D03*
X130250000Y-109800000D03*
X153700000Y-99000000D03*
X130250000Y-100200000D03*
X153000000Y-95400000D03*
X157500000Y-114600000D03*
X167000000Y-95400000D03*
X139500000Y-114600000D03*
X143250000Y-99000000D03*
X148500000Y-95400000D03*
%TO.N,PMOD_CS2*%
X142500000Y-104000000D03*
%TD*%
D19*
%TO.N,PMOD_CS*%
X144135000Y-109000000D02*
X145595000Y-109000000D01*
X143250000Y-100250000D02*
X143250000Y-108115000D01*
X143250000Y-108115000D02*
X144135000Y-109000000D01*
D20*
%TO.N,PMOD_MOSI*%
X149405000Y-101000000D02*
X149410000Y-100995000D01*
X159900000Y-100995000D02*
X159905000Y-101000000D01*
X149410000Y-100995000D02*
X149410000Y-99000000D01*
X159900000Y-99000000D02*
X159900000Y-100995000D01*
%TO.N,PMOD_MISO*%
X146860000Y-109005000D02*
X146865000Y-109000000D01*
X157360000Y-110050000D02*
X157360000Y-109005000D01*
X146860000Y-110100000D02*
X146860000Y-109005000D01*
X157360000Y-109005000D02*
X157365000Y-109000000D01*
%TO.N,PMOD_SCK*%
X158630000Y-99900000D02*
X158630000Y-100995000D01*
X148135000Y-101000000D02*
X148140000Y-100995000D01*
X148140000Y-100995000D02*
X148140000Y-99900000D01*
X158630000Y-100995000D02*
X158635000Y-101000000D01*
%TO.N,GND*%
X131547500Y-114000000D02*
X130250000Y-114000000D01*
X149405000Y-110095000D02*
X149400000Y-110100000D01*
X154588000Y-99000000D02*
X153700000Y-99000000D01*
X149405000Y-109000000D02*
X149405000Y-110095000D01*
X144088000Y-99000000D02*
X143250000Y-99000000D01*
%TO.N,+VPMOD*%
X133452500Y-114000000D02*
X133452500Y-111397500D01*
X136040000Y-111350000D02*
X133500000Y-111350000D01*
X134988000Y-114000000D02*
X133452500Y-114000000D01*
X133452500Y-111397500D02*
X133500000Y-111350000D01*
D19*
%TO.N,PMOD_CS2*%
X153980000Y-109000000D02*
X156095000Y-109000000D01*
X152050000Y-110930000D02*
X153980000Y-109000000D01*
X142500000Y-108320000D02*
X145110000Y-110930000D01*
X142500000Y-104000000D02*
X142500000Y-108320000D01*
X145110000Y-110930000D02*
X152050000Y-110930000D01*
D20*
%TO.N,+3.3V*%
X156112000Y-99000000D02*
X156112000Y-100983000D01*
X145612000Y-99000000D02*
X145612000Y-97012000D01*
D21*
X138120000Y-114000000D02*
X137340000Y-114000000D01*
D19*
X155240000Y-107500000D02*
X154500000Y-106760000D01*
D21*
X138120000Y-114000000D02*
X140250000Y-111870000D01*
X140250000Y-99206089D02*
X142456089Y-97000000D01*
D19*
X157365000Y-99495000D02*
X157365000Y-101000000D01*
D20*
X156112000Y-100983000D02*
X156095000Y-101000000D01*
D19*
X154500000Y-106760000D02*
X154500000Y-101515000D01*
X147510000Y-107500000D02*
X144570000Y-107500000D01*
X154500000Y-101515000D02*
X155015000Y-101000000D01*
X143980000Y-101530000D02*
X144510000Y-101000000D01*
D21*
X142456089Y-97000000D02*
X145600000Y-97000000D01*
D20*
X145595000Y-101000000D02*
X145595000Y-99017000D01*
D19*
X158635000Y-108225000D02*
X157910000Y-107500000D01*
X156870000Y-99000000D02*
X157365000Y-99495000D01*
X144570000Y-107500000D02*
X143980000Y-106910000D01*
X146290000Y-99000000D02*
X146865000Y-99575000D01*
X144510000Y-101000000D02*
X145595000Y-101000000D01*
D20*
X145595000Y-99017000D02*
X145612000Y-99000000D01*
D21*
X140250000Y-111870000D02*
X140250000Y-99206089D01*
D19*
X157910000Y-107500000D02*
X155240000Y-107500000D01*
X158635000Y-109000000D02*
X158635000Y-108225000D01*
D20*
X145612000Y-97012000D02*
X145600000Y-97000000D01*
X156112000Y-97052000D02*
X156060000Y-97000000D01*
D19*
X143980000Y-106910000D02*
X143980000Y-101530000D01*
X148135000Y-108125000D02*
X147510000Y-107500000D01*
X145612000Y-99000000D02*
X146290000Y-99000000D01*
D20*
X156112000Y-99000000D02*
X156112000Y-97052000D01*
D21*
X145600000Y-97000000D02*
X156060000Y-97000000D01*
D19*
X155015000Y-101000000D02*
X156095000Y-101000000D01*
D20*
X137340000Y-114000000D02*
X136512000Y-114000000D01*
D19*
X156112000Y-99000000D02*
X156870000Y-99000000D01*
X146865000Y-99575000D02*
X146865000Y-101000000D01*
X148135000Y-109000000D02*
X148135000Y-108125000D01*
%TD*%
%TA.AperFunction,Conductor*%
%TO.N,GND*%
G36*
X167238121Y-95114002D02*
G01*
X167284614Y-95167658D01*
X167296000Y-95220000D01*
X167296000Y-114780000D01*
X167275998Y-114848121D01*
X167222342Y-114894614D01*
X167170000Y-114906000D01*
X138957561Y-114906000D01*
X138889440Y-114885998D01*
X138842947Y-114832342D01*
X138832843Y-114762068D01*
X138860479Y-114699682D01*
X138869213Y-114689125D01*
X138877200Y-114680348D01*
X139437648Y-114119900D01*
X157078534Y-114119900D01*
X166588134Y-114119900D01*
X166588134Y-110630100D01*
X158711867Y-110630100D01*
X158711867Y-111754100D01*
X158691865Y-111822221D01*
X158638209Y-111868714D01*
X158585867Y-111880100D01*
X157078534Y-111880100D01*
X157078534Y-114119900D01*
X139437648Y-114119900D01*
X140924733Y-112632815D01*
X140934876Y-112623713D01*
X140959849Y-112603634D01*
X140964649Y-112599775D01*
X140997187Y-112560998D01*
X141000352Y-112557370D01*
X141002046Y-112555502D01*
X141004240Y-112553308D01*
X141031736Y-112519834D01*
X141032488Y-112518927D01*
X141092786Y-112447067D01*
X141095375Y-112442358D01*
X141098782Y-112438210D01*
X141101690Y-112432786D01*
X141101693Y-112432782D01*
X141143050Y-112355651D01*
X141143679Y-112354492D01*
X141185854Y-112277776D01*
X141188821Y-112272379D01*
X141190444Y-112267263D01*
X141192984Y-112262526D01*
X141220384Y-112172904D01*
X141220767Y-112171674D01*
X141247236Y-112088234D01*
X141249098Y-112082365D01*
X141249697Y-112077027D01*
X141251267Y-112071891D01*
X141260746Y-111978569D01*
X141260866Y-111977449D01*
X141266500Y-111927216D01*
X141266500Y-111923711D01*
X141266562Y-111922603D01*
X141267010Y-111916908D01*
X141270790Y-111879695D01*
X141270790Y-111879688D01*
X141271412Y-111873565D01*
X141267059Y-111827514D01*
X141266500Y-111815657D01*
X141266500Y-99679327D01*
X141286502Y-99611206D01*
X141303405Y-99590232D01*
X142840232Y-98053405D01*
X142902544Y-98019379D01*
X142929327Y-98016500D01*
X143515485Y-98016500D01*
X143583606Y-98036502D01*
X143630099Y-98090158D01*
X143640203Y-98160432D01*
X143610709Y-98225012D01*
X143604580Y-98231595D01*
X143580483Y-98255692D01*
X143538132Y-98319075D01*
X143528816Y-98341566D01*
X143517707Y-98397415D01*
X143516500Y-98409670D01*
X143516500Y-98727885D01*
X143520975Y-98743124D01*
X143522365Y-98744329D01*
X143530048Y-98746000D01*
X144641384Y-98746000D01*
X144656623Y-98741525D01*
X144657828Y-98740135D01*
X144659499Y-98732452D01*
X144659499Y-98409672D01*
X144658291Y-98397412D01*
X144647185Y-98341569D01*
X144637867Y-98319073D01*
X144595517Y-98255692D01*
X144571420Y-98231595D01*
X144537394Y-98169283D01*
X144542459Y-98098468D01*
X144585006Y-98041632D01*
X144651526Y-98016821D01*
X144660515Y-98016500D01*
X145028300Y-98016500D01*
X145096421Y-98036502D01*
X145142914Y-98090158D01*
X145154300Y-98142500D01*
X145154300Y-98152964D01*
X145134298Y-98221085D01*
X145119675Y-98239230D01*
X145111016Y-98245016D01*
X145054766Y-98329199D01*
X145040000Y-98403433D01*
X145040001Y-99596566D01*
X145046877Y-99631135D01*
X145052306Y-99658431D01*
X145054766Y-99670801D01*
X145061661Y-99681120D01*
X145061662Y-99681122D01*
X145111016Y-99754984D01*
X145108853Y-99756429D01*
X145134421Y-99803252D01*
X145137300Y-99830035D01*
X145137300Y-100314535D01*
X145116065Y-100384536D01*
X145112162Y-100390377D01*
X145112161Y-100390380D01*
X145105266Y-100400699D01*
X145090500Y-100474933D01*
X145090500Y-100517900D01*
X145070498Y-100586021D01*
X145016842Y-100632514D01*
X144964500Y-100643900D01*
X144561427Y-100643900D01*
X144541378Y-100641766D01*
X144537188Y-100641568D01*
X144527006Y-100639376D01*
X144516665Y-100640600D01*
X144496161Y-100643027D01*
X144490783Y-100643344D01*
X144490794Y-100643472D01*
X144485616Y-100643900D01*
X144480416Y-100643900D01*
X144475288Y-100644754D01*
X144475284Y-100644754D01*
X144462739Y-100646842D01*
X144456861Y-100647679D01*
X144438582Y-100649843D01*
X144409277Y-100653311D01*
X144401534Y-100657029D01*
X144393058Y-100658440D01*
X144383897Y-100663383D01*
X144350886Y-100681194D01*
X144345600Y-100683887D01*
X144309558Y-100701195D01*
X144309555Y-100701197D01*
X144302410Y-100704628D01*
X144298400Y-100707999D01*
X144296462Y-100709937D01*
X144294811Y-100711452D01*
X144294401Y-100711673D01*
X144294363Y-100711631D01*
X144294180Y-100711792D01*
X144288726Y-100714735D01*
X144281658Y-100722382D01*
X144281657Y-100722382D01*
X144254481Y-100751781D01*
X144251051Y-100755348D01*
X143821195Y-101185203D01*
X143758883Y-101219228D01*
X143688067Y-101214163D01*
X143631232Y-101171616D01*
X143606421Y-101105096D01*
X143606100Y-101096107D01*
X143606100Y-100806323D01*
X143626102Y-100738202D01*
X143650269Y-100710512D01*
X143681442Y-100683887D01*
X143702391Y-100665995D01*
X143788561Y-100546077D01*
X143843640Y-100409065D01*
X143854732Y-100331128D01*
X143863865Y-100266955D01*
X143863865Y-100266952D01*
X143864446Y-100262871D01*
X143864581Y-100250000D01*
X143846841Y-100103402D01*
X143794644Y-99965267D01*
X143797632Y-99964138D01*
X143786614Y-99908728D01*
X143816887Y-99837456D01*
X143832329Y-99819635D01*
X143834000Y-99811952D01*
X143834000Y-99807384D01*
X144342000Y-99807384D01*
X144346475Y-99822623D01*
X144347865Y-99823828D01*
X144355548Y-99825499D01*
X144424328Y-99825499D01*
X144436588Y-99824291D01*
X144492431Y-99813185D01*
X144514927Y-99803867D01*
X144578308Y-99761517D01*
X144595517Y-99744308D01*
X144637868Y-99680925D01*
X144647184Y-99658434D01*
X144658293Y-99602585D01*
X144659500Y-99590330D01*
X144659500Y-99272115D01*
X144655025Y-99256876D01*
X144653635Y-99255671D01*
X144645952Y-99254000D01*
X144360115Y-99254000D01*
X144344876Y-99258475D01*
X144343671Y-99259865D01*
X144342000Y-99267548D01*
X144342000Y-99807384D01*
X143834000Y-99807384D01*
X143834000Y-99272115D01*
X143829525Y-99256876D01*
X143828135Y-99255671D01*
X143820452Y-99254000D01*
X143534616Y-99254000D01*
X143519377Y-99258475D01*
X143518172Y-99259865D01*
X143516501Y-99267548D01*
X143516501Y-99526294D01*
X143496499Y-99594415D01*
X143442843Y-99640908D01*
X143372569Y-99651012D01*
X143359807Y-99648498D01*
X143334401Y-99642117D01*
X143334399Y-99642117D01*
X143327027Y-99640265D01*
X143319428Y-99640225D01*
X143319426Y-99640225D01*
X143257798Y-99639903D01*
X143179362Y-99639492D01*
X143171982Y-99641264D01*
X143171980Y-99641264D01*
X143043153Y-99672192D01*
X143043149Y-99672193D01*
X143035774Y-99673964D01*
X142904554Y-99741692D01*
X142898832Y-99746684D01*
X142898830Y-99746685D01*
X142835526Y-99801909D01*
X142793277Y-99838765D01*
X142708368Y-99959579D01*
X142705609Y-99966654D01*
X142705608Y-99966657D01*
X142668041Y-100063012D01*
X142654727Y-100097160D01*
X142653735Y-100104693D01*
X142653735Y-100104694D01*
X142636682Y-100234231D01*
X142635453Y-100243564D01*
X142651657Y-100390340D01*
X142654267Y-100397472D01*
X142684879Y-100481123D01*
X142702404Y-100529014D01*
X142706640Y-100535317D01*
X142706640Y-100535318D01*
X142779317Y-100643472D01*
X142784765Y-100651580D01*
X142790384Y-100656693D01*
X142790385Y-100656694D01*
X142852699Y-100713395D01*
X142889622Y-100774036D01*
X142893900Y-100806589D01*
X142893900Y-103310545D01*
X142873898Y-103378666D01*
X142820242Y-103425159D01*
X142749968Y-103435263D01*
X142725026Y-103428770D01*
X142720246Y-103426239D01*
X142704134Y-103422192D01*
X142584398Y-103392116D01*
X142584394Y-103392116D01*
X142577027Y-103390265D01*
X142569428Y-103390225D01*
X142569426Y-103390225D01*
X142507798Y-103389903D01*
X142429362Y-103389492D01*
X142421982Y-103391264D01*
X142421980Y-103391264D01*
X142293153Y-103422192D01*
X142293149Y-103422193D01*
X142285774Y-103423964D01*
X142276726Y-103428634D01*
X142169004Y-103484234D01*
X142154554Y-103491692D01*
X142148832Y-103496684D01*
X142148830Y-103496685D01*
X142106305Y-103533782D01*
X142043277Y-103588765D01*
X141958368Y-103709579D01*
X141955609Y-103716654D01*
X141955608Y-103716657D01*
X141925723Y-103793309D01*
X141904727Y-103847160D01*
X141903735Y-103854693D01*
X141903735Y-103854694D01*
X141895239Y-103919233D01*
X141885453Y-103993564D01*
X141901657Y-104140340D01*
X141904267Y-104147472D01*
X141933390Y-104227054D01*
X141952404Y-104279014D01*
X142034765Y-104401580D01*
X142040384Y-104406693D01*
X142040385Y-104406694D01*
X142102699Y-104463395D01*
X142139622Y-104524036D01*
X142143900Y-104556589D01*
X142143900Y-108268572D01*
X142141767Y-108288608D01*
X142141569Y-108292809D01*
X142139376Y-108302993D01*
X142140600Y-108313334D01*
X142143027Y-108333840D01*
X142143344Y-108339215D01*
X142143472Y-108339204D01*
X142143900Y-108344382D01*
X142143900Y-108349584D01*
X142144754Y-108354714D01*
X142146839Y-108367243D01*
X142147674Y-108373115D01*
X142152084Y-108410374D01*
X142152086Y-108410381D01*
X142153310Y-108420722D01*
X142157030Y-108428468D01*
X142158440Y-108436942D01*
X142175664Y-108468863D01*
X142181192Y-108479109D01*
X142183885Y-108484396D01*
X142201195Y-108520442D01*
X142201197Y-108520445D01*
X142204628Y-108527590D01*
X142207999Y-108531600D01*
X142209937Y-108533538D01*
X142211452Y-108535189D01*
X142211673Y-108535599D01*
X142211631Y-108535637D01*
X142211792Y-108535820D01*
X142214735Y-108541274D01*
X142222382Y-108548342D01*
X142222382Y-108548343D01*
X142251795Y-108575532D01*
X142255361Y-108578962D01*
X144821832Y-111145433D01*
X144834509Y-111161129D01*
X144837326Y-111164225D01*
X144842975Y-111172974D01*
X144851153Y-111179421D01*
X144867372Y-111192207D01*
X144871396Y-111195783D01*
X144871479Y-111195685D01*
X144875443Y-111199044D01*
X144879118Y-111202719D01*
X144893737Y-111213167D01*
X144898408Y-111216674D01*
X144936075Y-111246368D01*
X144944181Y-111249214D01*
X144951171Y-111254210D01*
X144984709Y-111264240D01*
X144997071Y-111267937D01*
X145002715Y-111269771D01*
X145040447Y-111283021D01*
X145040450Y-111283022D01*
X145047929Y-111285648D01*
X145053148Y-111286100D01*
X145055859Y-111286100D01*
X145058135Y-111286198D01*
X145058585Y-111286333D01*
X145058583Y-111286387D01*
X145058814Y-111286402D01*
X145064751Y-111288177D01*
X145115149Y-111286197D01*
X145120095Y-111286100D01*
X151998572Y-111286100D01*
X152018621Y-111288234D01*
X152022811Y-111288432D01*
X152032993Y-111290624D01*
X152063840Y-111286973D01*
X152069215Y-111286656D01*
X152069204Y-111286528D01*
X152074382Y-111286100D01*
X152079584Y-111286100D01*
X152090919Y-111284213D01*
X152097243Y-111283161D01*
X152103115Y-111282326D01*
X152140374Y-111277916D01*
X152140381Y-111277914D01*
X152150722Y-111276690D01*
X152158468Y-111272970D01*
X152166942Y-111271560D01*
X152206186Y-111250385D01*
X152209109Y-111248808D01*
X152214396Y-111246115D01*
X152250442Y-111228805D01*
X152250445Y-111228803D01*
X152257590Y-111225372D01*
X152261600Y-111222001D01*
X152263538Y-111220063D01*
X152265189Y-111218548D01*
X152265599Y-111218327D01*
X152265637Y-111218369D01*
X152265820Y-111218208D01*
X152271274Y-111215265D01*
X152282872Y-111202719D01*
X152305531Y-111178206D01*
X152308961Y-111174640D01*
X153440038Y-110043564D01*
X156745453Y-110043564D01*
X156761657Y-110190340D01*
X156764267Y-110197472D01*
X156790825Y-110270045D01*
X156812404Y-110329014D01*
X156816640Y-110335317D01*
X156816640Y-110335318D01*
X156857469Y-110396077D01*
X156894765Y-110451580D01*
X156900384Y-110456693D01*
X156900385Y-110456694D01*
X156988635Y-110536995D01*
X157003985Y-110550962D01*
X157133758Y-110621423D01*
X157276592Y-110658895D01*
X157353379Y-110660101D01*
X157416643Y-110661095D01*
X157416646Y-110661095D01*
X157424241Y-110661214D01*
X157476036Y-110649351D01*
X157560779Y-110629943D01*
X157560783Y-110629942D01*
X157568182Y-110628247D01*
X157588954Y-110617800D01*
X157693321Y-110565310D01*
X157693324Y-110565308D01*
X157700104Y-110561898D01*
X157812391Y-110465995D01*
X157898561Y-110346077D01*
X157934699Y-110256181D01*
X157950805Y-110216118D01*
X157950806Y-110216116D01*
X157953640Y-110209065D01*
X157967917Y-110108746D01*
X157973865Y-110066955D01*
X157973865Y-110066952D01*
X157974446Y-110062871D01*
X157974581Y-110050000D01*
X157956841Y-109903402D01*
X157904644Y-109765267D01*
X157900345Y-109759012D01*
X157900343Y-109759008D01*
X157867723Y-109711546D01*
X157845623Y-109644076D01*
X157853464Y-109601202D01*
X157854734Y-109599301D01*
X157857156Y-109587128D01*
X157868293Y-109531135D01*
X157869500Y-109525067D01*
X157869499Y-108474934D01*
X157859195Y-108423129D01*
X157857156Y-108412874D01*
X157857155Y-108412872D01*
X157854734Y-108400699D01*
X157847362Y-108389665D01*
X157805377Y-108326832D01*
X157798484Y-108316516D01*
X157714301Y-108260266D01*
X157640067Y-108245500D01*
X157365045Y-108245500D01*
X157089934Y-108245501D01*
X157054182Y-108252612D01*
X157027874Y-108257844D01*
X157027872Y-108257845D01*
X157015699Y-108260266D01*
X157005379Y-108267161D01*
X157005378Y-108267162D01*
X156951754Y-108302993D01*
X156931516Y-108316516D01*
X156875266Y-108400699D01*
X156860500Y-108474933D01*
X156860501Y-109525066D01*
X156873807Y-109591964D01*
X156875266Y-109599301D01*
X156872898Y-109599772D01*
X156878666Y-109653463D01*
X156857759Y-109703531D01*
X156818368Y-109759579D01*
X156815609Y-109766654D01*
X156815608Y-109766657D01*
X156773403Y-109874908D01*
X156764727Y-109897160D01*
X156763735Y-109904693D01*
X156763735Y-109904694D01*
X156749196Y-110015134D01*
X156745453Y-110043564D01*
X153440038Y-110043564D01*
X154090597Y-109393005D01*
X154152909Y-109358979D01*
X154179692Y-109356100D01*
X155464501Y-109356100D01*
X155532622Y-109376102D01*
X155579115Y-109429758D01*
X155590501Y-109482100D01*
X155590501Y-109525066D01*
X155597612Y-109560818D01*
X155602806Y-109586931D01*
X155605266Y-109599301D01*
X155612161Y-109609620D01*
X155612162Y-109609622D01*
X155620999Y-109622847D01*
X155661516Y-109683484D01*
X155745699Y-109739734D01*
X155819933Y-109754500D01*
X156094955Y-109754500D01*
X156370066Y-109754499D01*
X156405818Y-109747388D01*
X156432126Y-109742156D01*
X156432128Y-109742155D01*
X156444301Y-109739734D01*
X156454621Y-109732839D01*
X156454622Y-109732838D01*
X156518168Y-109690377D01*
X156528484Y-109683484D01*
X156584734Y-109599301D01*
X156599500Y-109525067D01*
X156599499Y-108474934D01*
X156589195Y-108423129D01*
X156587156Y-108412874D01*
X156587155Y-108412872D01*
X156584734Y-108400699D01*
X156577362Y-108389665D01*
X156535377Y-108326832D01*
X156528484Y-108316516D01*
X156444301Y-108260266D01*
X156370067Y-108245500D01*
X156095045Y-108245500D01*
X155819934Y-108245501D01*
X155784182Y-108252612D01*
X155757874Y-108257844D01*
X155757872Y-108257845D01*
X155745699Y-108260266D01*
X155735379Y-108267161D01*
X155735378Y-108267162D01*
X155681754Y-108302993D01*
X155661516Y-108316516D01*
X155605266Y-108400699D01*
X155590500Y-108474933D01*
X155590500Y-108517900D01*
X155570498Y-108586021D01*
X155516842Y-108632514D01*
X155464500Y-108643900D01*
X154031428Y-108643900D01*
X154011379Y-108641766D01*
X154007189Y-108641568D01*
X153997007Y-108639376D01*
X153986666Y-108640600D01*
X153966162Y-108643027D01*
X153960784Y-108643344D01*
X153960795Y-108643472D01*
X153955615Y-108643900D01*
X153950416Y-108643900D01*
X153945292Y-108644753D01*
X153945279Y-108644754D01*
X153932742Y-108646841D01*
X153926867Y-108647677D01*
X153889625Y-108652085D01*
X153889618Y-108652087D01*
X153879277Y-108653311D01*
X153871534Y-108657029D01*
X153863058Y-108658440D01*
X153853897Y-108663383D01*
X153820886Y-108681194D01*
X153815600Y-108683887D01*
X153779558Y-108701195D01*
X153779555Y-108701197D01*
X153772410Y-108704628D01*
X153768400Y-108707999D01*
X153766462Y-108709937D01*
X153764811Y-108711452D01*
X153764401Y-108711673D01*
X153764363Y-108711631D01*
X153764180Y-108711792D01*
X153758726Y-108714735D01*
X153751658Y-108722382D01*
X153751657Y-108722382D01*
X153724469Y-108751794D01*
X153721039Y-108755360D01*
X151939403Y-110536995D01*
X151877091Y-110571021D01*
X151850308Y-110573900D01*
X147512815Y-110573900D01*
X147444694Y-110553898D01*
X147398201Y-110500242D01*
X147388097Y-110429968D01*
X147399328Y-110396385D01*
X147398561Y-110396077D01*
X147450805Y-110266118D01*
X147450806Y-110266116D01*
X147453640Y-110259065D01*
X147474446Y-110112871D01*
X147474581Y-110100000D01*
X147456841Y-109953402D01*
X147404644Y-109815267D01*
X147354533Y-109742355D01*
X147332433Y-109674886D01*
X147347345Y-109622847D01*
X147343090Y-109621085D01*
X147347839Y-109609620D01*
X147354734Y-109599301D01*
X147369500Y-109525067D01*
X147369499Y-108474934D01*
X147359195Y-108423129D01*
X147357156Y-108412874D01*
X147357155Y-108412872D01*
X147354734Y-108400699D01*
X147347362Y-108389665D01*
X147305377Y-108326832D01*
X147298484Y-108316516D01*
X147214301Y-108260266D01*
X147140067Y-108245500D01*
X146865045Y-108245500D01*
X146589934Y-108245501D01*
X146554182Y-108252612D01*
X146527874Y-108257844D01*
X146527872Y-108257845D01*
X146515699Y-108260266D01*
X146505379Y-108267161D01*
X146505378Y-108267162D01*
X146451754Y-108302993D01*
X146431516Y-108316516D01*
X146375266Y-108400699D01*
X146360500Y-108474933D01*
X146360501Y-109525066D01*
X146367612Y-109560818D01*
X146372806Y-109586931D01*
X146375266Y-109599301D01*
X146382161Y-109609620D01*
X146384111Y-109614327D01*
X146391699Y-109684917D01*
X146370790Y-109734990D01*
X146318368Y-109809579D01*
X146315609Y-109816654D01*
X146315608Y-109816657D01*
X146276690Y-109916477D01*
X146264727Y-109947160D01*
X146263735Y-109954693D01*
X146263735Y-109954694D01*
X146248938Y-110067094D01*
X146245453Y-110093564D01*
X146261657Y-110240340D01*
X146264267Y-110247472D01*
X146309605Y-110371365D01*
X146312404Y-110379014D01*
X146316638Y-110385315D01*
X146319381Y-110390698D01*
X146332485Y-110460475D01*
X146305784Y-110526259D01*
X146247757Y-110567165D01*
X146207114Y-110573900D01*
X145309692Y-110573900D01*
X145241571Y-110553898D01*
X145220597Y-110536995D01*
X144254797Y-109571195D01*
X144220771Y-109508883D01*
X144225836Y-109438068D01*
X144268383Y-109381232D01*
X144334903Y-109356421D01*
X144343892Y-109356100D01*
X144964501Y-109356100D01*
X145032622Y-109376102D01*
X145079115Y-109429758D01*
X145090501Y-109482100D01*
X145090501Y-109525066D01*
X145097612Y-109560818D01*
X145102806Y-109586931D01*
X145105266Y-109599301D01*
X145112161Y-109609620D01*
X145112162Y-109609622D01*
X145120999Y-109622847D01*
X145161516Y-109683484D01*
X145245699Y-109739734D01*
X145319933Y-109754500D01*
X145594955Y-109754500D01*
X145870066Y-109754499D01*
X145905818Y-109747388D01*
X145932126Y-109742156D01*
X145932128Y-109742155D01*
X145944301Y-109739734D01*
X145954621Y-109732839D01*
X145954622Y-109732838D01*
X146018168Y-109690377D01*
X146028484Y-109683484D01*
X146084734Y-109599301D01*
X146099500Y-109525067D01*
X146099499Y-108474934D01*
X146089195Y-108423129D01*
X146087156Y-108412874D01*
X146087155Y-108412872D01*
X146084734Y-108400699D01*
X146077362Y-108389665D01*
X146035377Y-108326832D01*
X146028484Y-108316516D01*
X145944301Y-108260266D01*
X145870067Y-108245500D01*
X145595045Y-108245500D01*
X145319934Y-108245501D01*
X145284182Y-108252612D01*
X145257874Y-108257844D01*
X145257872Y-108257845D01*
X145245699Y-108260266D01*
X145235379Y-108267161D01*
X145235378Y-108267162D01*
X145181754Y-108302993D01*
X145161516Y-108316516D01*
X145105266Y-108400699D01*
X145090500Y-108474933D01*
X145090500Y-108517900D01*
X145070498Y-108586021D01*
X145016842Y-108632514D01*
X144964500Y-108643900D01*
X144334692Y-108643900D01*
X144266571Y-108623898D01*
X144245596Y-108606995D01*
X143643004Y-108004402D01*
X143608979Y-107942090D01*
X143606100Y-107915307D01*
X143606100Y-107343892D01*
X143626102Y-107275771D01*
X143679758Y-107229278D01*
X143750032Y-107219174D01*
X143814612Y-107248668D01*
X143821194Y-107254795D01*
X144094022Y-107527624D01*
X144281834Y-107715436D01*
X144294508Y-107731129D01*
X144297327Y-107734227D01*
X144302975Y-107742974D01*
X144327367Y-107762203D01*
X144331397Y-107765784D01*
X144331480Y-107765686D01*
X144335437Y-107769039D01*
X144339118Y-107772720D01*
X144343350Y-107775744D01*
X144343352Y-107775746D01*
X144353711Y-107783149D01*
X144358456Y-107786712D01*
X144387895Y-107809920D01*
X144387897Y-107809921D01*
X144396075Y-107816368D01*
X144404180Y-107819214D01*
X144411171Y-107824210D01*
X144456776Y-107837849D01*
X144457062Y-107837934D01*
X144462707Y-107839768D01*
X144500447Y-107853021D01*
X144500450Y-107853022D01*
X144507929Y-107855648D01*
X144513148Y-107856100D01*
X144515859Y-107856100D01*
X144518136Y-107856198D01*
X144518585Y-107856333D01*
X144518583Y-107856387D01*
X144518816Y-107856402D01*
X144524752Y-107858177D01*
X144575150Y-107856197D01*
X144580096Y-107856100D01*
X147310309Y-107856100D01*
X147378430Y-107876102D01*
X147399404Y-107893005D01*
X147677023Y-108170624D01*
X147711049Y-108232936D01*
X147705984Y-108303751D01*
X147692692Y-108329721D01*
X147645266Y-108400699D01*
X147630500Y-108474933D01*
X147630501Y-109525066D01*
X147637612Y-109560818D01*
X147642806Y-109586931D01*
X147645266Y-109599301D01*
X147652161Y-109609620D01*
X147652162Y-109609622D01*
X147660999Y-109622847D01*
X147701516Y-109683484D01*
X147785699Y-109739734D01*
X147859933Y-109754500D01*
X148134955Y-109754500D01*
X148410066Y-109754499D01*
X148445818Y-109747388D01*
X148472126Y-109742156D01*
X148472128Y-109742155D01*
X148484301Y-109739734D01*
X148494621Y-109732839D01*
X148494622Y-109732838D01*
X148558168Y-109690377D01*
X148568484Y-109683484D01*
X148624734Y-109599301D01*
X148639500Y-109525067D01*
X148639500Y-109518828D01*
X148901001Y-109518828D01*
X148902209Y-109531088D01*
X148913315Y-109586931D01*
X148922633Y-109609427D01*
X148964983Y-109672808D01*
X148982192Y-109690017D01*
X149045575Y-109732368D01*
X149068066Y-109741684D01*
X149123915Y-109752793D01*
X149136170Y-109754000D01*
X149136885Y-109754000D01*
X149152124Y-109749525D01*
X149153329Y-109748135D01*
X149155000Y-109740452D01*
X149155000Y-109735884D01*
X149655000Y-109735884D01*
X149659475Y-109751123D01*
X149660865Y-109752328D01*
X149668548Y-109753999D01*
X149673828Y-109753999D01*
X149686088Y-109752791D01*
X149741931Y-109741685D01*
X149764427Y-109732367D01*
X149827808Y-109690017D01*
X149845017Y-109672808D01*
X149887368Y-109609425D01*
X149896684Y-109586934D01*
X149907793Y-109531085D01*
X149909000Y-109518830D01*
X149909000Y-109268115D01*
X149904525Y-109252876D01*
X149903135Y-109251671D01*
X149895452Y-109250000D01*
X149673115Y-109250000D01*
X149657876Y-109254475D01*
X149656671Y-109255865D01*
X149655000Y-109263548D01*
X149655000Y-109735884D01*
X149155000Y-109735884D01*
X149155000Y-109268115D01*
X149150525Y-109252876D01*
X149149135Y-109251671D01*
X149141452Y-109250000D01*
X148919116Y-109250000D01*
X148903877Y-109254475D01*
X148902672Y-109255865D01*
X148901001Y-109263548D01*
X148901001Y-109518828D01*
X148639500Y-109518828D01*
X148639499Y-108731885D01*
X148901000Y-108731885D01*
X148905475Y-108747124D01*
X148906865Y-108748329D01*
X148914548Y-108750000D01*
X149136885Y-108750000D01*
X149152124Y-108745525D01*
X149153329Y-108744135D01*
X149155000Y-108736452D01*
X149155000Y-108731885D01*
X149655000Y-108731885D01*
X149659475Y-108747124D01*
X149660865Y-108748329D01*
X149668548Y-108750000D01*
X149890884Y-108750000D01*
X149906123Y-108745525D01*
X149907328Y-108744135D01*
X149908999Y-108736452D01*
X149908999Y-108481172D01*
X149907791Y-108468912D01*
X149896685Y-108413069D01*
X149887367Y-108390573D01*
X149845017Y-108327192D01*
X149827808Y-108309983D01*
X149764425Y-108267632D01*
X149741934Y-108258316D01*
X149686085Y-108247207D01*
X149673830Y-108246000D01*
X149673115Y-108246000D01*
X149657876Y-108250475D01*
X149656671Y-108251865D01*
X149655000Y-108259548D01*
X149655000Y-108731885D01*
X149155000Y-108731885D01*
X149155000Y-108264116D01*
X149150525Y-108248877D01*
X149149135Y-108247672D01*
X149141452Y-108246001D01*
X149136172Y-108246001D01*
X149123912Y-108247209D01*
X149068069Y-108258315D01*
X149045573Y-108267633D01*
X148982192Y-108309983D01*
X148964983Y-108327192D01*
X148922632Y-108390575D01*
X148913316Y-108413066D01*
X148902207Y-108468915D01*
X148901000Y-108481170D01*
X148901000Y-108731885D01*
X148639499Y-108731885D01*
X148639499Y-108474934D01*
X148629195Y-108423129D01*
X148627156Y-108412874D01*
X148627155Y-108412872D01*
X148624734Y-108400699D01*
X148617362Y-108389665D01*
X148575377Y-108326832D01*
X148568484Y-108316516D01*
X148558167Y-108309622D01*
X148547097Y-108302225D01*
X148501570Y-108247748D01*
X148491100Y-108197461D01*
X148491100Y-108176422D01*
X148493232Y-108156389D01*
X148493430Y-108152191D01*
X148495623Y-108142006D01*
X148491973Y-108111167D01*
X148491656Y-108105785D01*
X148491528Y-108105796D01*
X148491100Y-108100618D01*
X148491100Y-108095416D01*
X148488158Y-108077739D01*
X148487323Y-108071867D01*
X148482915Y-108034625D01*
X148482913Y-108034618D01*
X148481689Y-108024277D01*
X148477971Y-108016534D01*
X148476560Y-108008058D01*
X148453798Y-107965874D01*
X148451117Y-107960611D01*
X148433804Y-107924556D01*
X148433803Y-107924555D01*
X148430372Y-107917409D01*
X148427001Y-107913399D01*
X148425062Y-107911460D01*
X148423547Y-107909808D01*
X148423327Y-107909400D01*
X148423368Y-107909362D01*
X148423208Y-107909181D01*
X148420265Y-107903726D01*
X148383218Y-107869481D01*
X148379653Y-107866051D01*
X147798167Y-107284565D01*
X147785495Y-107268875D01*
X147782673Y-107265774D01*
X147777025Y-107257026D01*
X147752633Y-107237797D01*
X147748603Y-107234216D01*
X147748520Y-107234314D01*
X147744563Y-107230961D01*
X147740882Y-107227280D01*
X147736648Y-107224254D01*
X147726289Y-107216851D01*
X147721544Y-107213288D01*
X147683925Y-107183632D01*
X147685010Y-107182255D01*
X147643560Y-107140563D01*
X147628670Y-107071145D01*
X147653673Y-107004698D01*
X147710632Y-106962316D01*
X147754320Y-106954499D01*
X149675066Y-106954499D01*
X149710818Y-106947388D01*
X149737126Y-106942156D01*
X149737128Y-106942155D01*
X149749301Y-106939734D01*
X149759621Y-106932839D01*
X149759622Y-106932838D01*
X149823168Y-106890377D01*
X149833484Y-106883484D01*
X149889734Y-106799301D01*
X149904500Y-106725067D01*
X149904499Y-103274934D01*
X149889734Y-103200699D01*
X149833484Y-103116516D01*
X149749301Y-103060266D01*
X149675067Y-103045500D01*
X147500176Y-103045500D01*
X145324934Y-103045501D01*
X145289182Y-103052612D01*
X145262874Y-103057844D01*
X145262872Y-103057845D01*
X145250699Y-103060266D01*
X145240379Y-103067161D01*
X145240378Y-103067162D01*
X145201220Y-103093327D01*
X145166516Y-103116516D01*
X145110266Y-103200699D01*
X145095500Y-103274933D01*
X145095501Y-106725066D01*
X145101762Y-106756545D01*
X145106269Y-106779204D01*
X145110266Y-106799301D01*
X145117161Y-106809620D01*
X145117162Y-106809622D01*
X145157229Y-106869585D01*
X145166516Y-106883484D01*
X145210893Y-106913136D01*
X145256419Y-106967613D01*
X145265266Y-107038056D01*
X145234625Y-107102100D01*
X145174223Y-107139411D01*
X145140889Y-107143900D01*
X144769692Y-107143900D01*
X144701571Y-107123898D01*
X144680596Y-107106995D01*
X144373004Y-106799402D01*
X144338979Y-106737090D01*
X144336100Y-106710307D01*
X144336100Y-101729692D01*
X144356102Y-101661571D01*
X144373005Y-101640596D01*
X144620598Y-101393004D01*
X144682910Y-101358979D01*
X144709693Y-101356100D01*
X144964501Y-101356100D01*
X145032622Y-101376102D01*
X145079115Y-101429758D01*
X145090501Y-101482100D01*
X145090501Y-101525066D01*
X145105266Y-101599301D01*
X145161516Y-101683484D01*
X145245699Y-101739734D01*
X145319933Y-101754500D01*
X145594955Y-101754500D01*
X145870066Y-101754499D01*
X145905818Y-101747388D01*
X145932126Y-101742156D01*
X145932128Y-101742155D01*
X145944301Y-101739734D01*
X145954621Y-101732839D01*
X145954622Y-101732838D01*
X146018168Y-101690377D01*
X146028484Y-101683484D01*
X146084734Y-101599301D01*
X146099500Y-101525067D01*
X146099499Y-100474934D01*
X146084734Y-100400699D01*
X146077839Y-100390380D01*
X146077837Y-100390375D01*
X146073935Y-100384536D01*
X146052700Y-100314535D01*
X146052700Y-99862613D01*
X146072702Y-99794492D01*
X146095014Y-99771777D01*
X146093891Y-99770654D01*
X146102668Y-99761877D01*
X146112984Y-99754984D01*
X146169234Y-99670801D01*
X146171656Y-99658626D01*
X146176404Y-99647164D01*
X146178278Y-99647940D01*
X146203931Y-99598901D01*
X146265627Y-99563771D01*
X146336522Y-99567572D01*
X146383696Y-99597299D01*
X146471995Y-99685598D01*
X146506021Y-99747910D01*
X146508900Y-99774693D01*
X146508900Y-100197461D01*
X146488898Y-100265582D01*
X146452903Y-100302225D01*
X146441833Y-100309622D01*
X146431516Y-100316516D01*
X146424623Y-100326832D01*
X146390282Y-100378227D01*
X146375266Y-100400699D01*
X146360500Y-100474933D01*
X146360501Y-101525066D01*
X146375266Y-101599301D01*
X146431516Y-101683484D01*
X146515699Y-101739734D01*
X146589933Y-101754500D01*
X146864955Y-101754500D01*
X147140066Y-101754499D01*
X147175818Y-101747388D01*
X147202126Y-101742156D01*
X147202128Y-101742155D01*
X147214301Y-101739734D01*
X147224621Y-101732839D01*
X147224622Y-101732838D01*
X147288168Y-101690377D01*
X147298484Y-101683484D01*
X147354734Y-101599301D01*
X147369500Y-101525067D01*
X147369499Y-100474934D01*
X147354734Y-100400699D01*
X147347813Y-100390340D01*
X147305377Y-100326832D01*
X147298484Y-100316516D01*
X147288167Y-100309622D01*
X147277097Y-100302225D01*
X147231570Y-100247748D01*
X147221100Y-100197461D01*
X147221100Y-99893564D01*
X147525453Y-99893564D01*
X147541657Y-100040340D01*
X147544267Y-100047472D01*
X147570582Y-100119381D01*
X147592404Y-100179014D01*
X147596639Y-100185317D01*
X147596642Y-100185322D01*
X147646092Y-100258912D01*
X147667484Y-100326609D01*
X147652708Y-100377174D01*
X147656910Y-100378915D01*
X147652162Y-100390378D01*
X147645266Y-100400699D01*
X147630500Y-100474933D01*
X147630501Y-101525066D01*
X147645266Y-101599301D01*
X147701516Y-101683484D01*
X147785699Y-101739734D01*
X147859933Y-101754500D01*
X148134955Y-101754500D01*
X148410066Y-101754499D01*
X148445818Y-101747388D01*
X148472126Y-101742156D01*
X148472128Y-101742155D01*
X148484301Y-101739734D01*
X148494621Y-101732839D01*
X148494622Y-101732838D01*
X148558168Y-101690377D01*
X148568484Y-101683484D01*
X148624734Y-101599301D01*
X148639500Y-101525067D01*
X148639499Y-100474934D01*
X148624734Y-100400699D01*
X148617839Y-100390380D01*
X148615826Y-100385519D01*
X148608239Y-100314929D01*
X148629913Y-100263778D01*
X148649850Y-100236033D01*
X148678561Y-100196077D01*
X148709393Y-100119381D01*
X148753360Y-100063637D01*
X148820485Y-100040512D01*
X148889456Y-100057349D01*
X148938376Y-100108802D01*
X148952300Y-100166378D01*
X148952300Y-100307052D01*
X148931065Y-100377054D01*
X148922161Y-100390379D01*
X148922161Y-100390380D01*
X148915266Y-100400699D01*
X148900500Y-100474933D01*
X148900501Y-101525066D01*
X148915266Y-101599301D01*
X148971516Y-101683484D01*
X149055699Y-101739734D01*
X149129933Y-101754500D01*
X149404955Y-101754500D01*
X149680066Y-101754499D01*
X149715818Y-101747388D01*
X149742126Y-101742156D01*
X149742128Y-101742155D01*
X149754301Y-101739734D01*
X149764621Y-101732839D01*
X149764622Y-101732838D01*
X149828168Y-101690377D01*
X149838484Y-101683484D01*
X149894734Y-101599301D01*
X149909500Y-101525067D01*
X149909499Y-100474934D01*
X149894734Y-100400699D01*
X149887838Y-100390378D01*
X149883089Y-100378913D01*
X149884750Y-100378225D01*
X149867700Y-100322018D01*
X149867700Y-99590328D01*
X154016501Y-99590328D01*
X154017709Y-99602588D01*
X154028815Y-99658431D01*
X154038133Y-99680927D01*
X154080483Y-99744308D01*
X154097692Y-99761517D01*
X154161075Y-99803868D01*
X154183566Y-99813184D01*
X154239415Y-99824293D01*
X154251670Y-99825500D01*
X154315885Y-99825500D01*
X154331124Y-99821025D01*
X154332329Y-99819635D01*
X154334000Y-99811952D01*
X154334000Y-99807384D01*
X154842000Y-99807384D01*
X154846475Y-99822623D01*
X154847865Y-99823828D01*
X154855548Y-99825499D01*
X154924328Y-99825499D01*
X154936588Y-99824291D01*
X154992431Y-99813185D01*
X155014927Y-99803867D01*
X155078308Y-99761517D01*
X155095517Y-99744308D01*
X155137868Y-99680925D01*
X155147184Y-99658434D01*
X155158293Y-99602585D01*
X155159500Y-99590330D01*
X155159500Y-99272115D01*
X155155025Y-99256876D01*
X155153635Y-99255671D01*
X155145952Y-99254000D01*
X154860115Y-99254000D01*
X154844876Y-99258475D01*
X154843671Y-99259865D01*
X154842000Y-99267548D01*
X154842000Y-99807384D01*
X154334000Y-99807384D01*
X154334000Y-99272115D01*
X154329525Y-99256876D01*
X154328135Y-99255671D01*
X154320452Y-99254000D01*
X154034616Y-99254000D01*
X154019377Y-99258475D01*
X154018172Y-99259865D01*
X154016501Y-99267548D01*
X154016501Y-99590328D01*
X149867700Y-99590328D01*
X149867700Y-99449183D01*
X149891377Y-99375657D01*
X149897303Y-99367410D01*
X149948561Y-99296077D01*
X149964804Y-99255671D01*
X150000805Y-99166118D01*
X150000806Y-99166116D01*
X150003640Y-99159065D01*
X150012317Y-99098097D01*
X150023865Y-99016955D01*
X150023865Y-99016952D01*
X150024446Y-99012871D01*
X150024581Y-99000000D01*
X150006841Y-98853402D01*
X149954644Y-98715267D01*
X149946463Y-98703363D01*
X149875306Y-98599829D01*
X149875305Y-98599827D01*
X149871004Y-98593570D01*
X149844822Y-98570242D01*
X149791552Y-98522781D01*
X149760750Y-98495337D01*
X149753866Y-98491692D01*
X149636957Y-98429792D01*
X149636955Y-98429791D01*
X149630246Y-98426239D01*
X149564083Y-98409620D01*
X149494398Y-98392116D01*
X149494394Y-98392116D01*
X149487027Y-98390265D01*
X149479428Y-98390225D01*
X149479426Y-98390225D01*
X149417798Y-98389903D01*
X149339362Y-98389492D01*
X149331982Y-98391264D01*
X149331980Y-98391264D01*
X149203153Y-98422192D01*
X149203149Y-98422193D01*
X149195774Y-98423964D01*
X149064554Y-98491692D01*
X149058832Y-98496684D01*
X149058830Y-98496685D01*
X148959004Y-98583769D01*
X148953277Y-98588765D01*
X148868368Y-98709579D01*
X148865609Y-98716654D01*
X148865608Y-98716657D01*
X148817818Y-98839233D01*
X148814727Y-98847160D01*
X148813735Y-98854693D01*
X148813735Y-98854694D01*
X148803507Y-98932390D01*
X148795453Y-98993564D01*
X148811657Y-99140340D01*
X148814267Y-99147472D01*
X148855397Y-99259865D01*
X148862404Y-99279014D01*
X148866640Y-99285317D01*
X148866640Y-99285318D01*
X148930882Y-99380920D01*
X148952300Y-99451196D01*
X148952300Y-99633687D01*
X148932298Y-99701808D01*
X148878642Y-99748301D01*
X148808368Y-99758405D01*
X148743788Y-99728911D01*
X148708434Y-99678225D01*
X148687328Y-99622370D01*
X148684644Y-99615267D01*
X148624500Y-99527757D01*
X148605306Y-99499829D01*
X148605305Y-99499827D01*
X148601004Y-99493570D01*
X148587076Y-99481160D01*
X148505452Y-99408436D01*
X148490750Y-99395337D01*
X148479609Y-99389438D01*
X148366957Y-99329792D01*
X148366955Y-99329791D01*
X148360246Y-99326239D01*
X148313340Y-99314457D01*
X148224398Y-99292116D01*
X148224394Y-99292116D01*
X148217027Y-99290265D01*
X148209428Y-99290225D01*
X148209426Y-99290225D01*
X148147798Y-99289903D01*
X148069362Y-99289492D01*
X148061982Y-99291264D01*
X148061980Y-99291264D01*
X147933153Y-99322192D01*
X147933149Y-99322193D01*
X147925774Y-99323964D01*
X147843489Y-99366434D01*
X147814671Y-99381309D01*
X147794554Y-99391692D01*
X147788832Y-99396684D01*
X147788830Y-99396685D01*
X147733652Y-99444820D01*
X147683277Y-99488765D01*
X147598368Y-99609579D01*
X147595609Y-99616654D01*
X147595608Y-99616657D01*
X147548217Y-99738209D01*
X147544727Y-99747160D01*
X147543735Y-99754693D01*
X147543735Y-99754694D01*
X147527963Y-99874502D01*
X147525453Y-99893564D01*
X147221100Y-99893564D01*
X147221100Y-99626432D01*
X147223235Y-99606371D01*
X147223432Y-99602187D01*
X147225624Y-99592007D01*
X147221973Y-99561160D01*
X147221656Y-99555785D01*
X147221528Y-99555796D01*
X147221100Y-99550618D01*
X147221100Y-99545416D01*
X147218161Y-99527757D01*
X147217326Y-99521885D01*
X147212916Y-99484626D01*
X147212914Y-99484619D01*
X147211690Y-99474278D01*
X147207970Y-99466532D01*
X147206560Y-99458058D01*
X147183808Y-99415891D01*
X147181115Y-99410604D01*
X147163805Y-99374558D01*
X147163803Y-99374555D01*
X147160372Y-99367410D01*
X147157001Y-99363400D01*
X147155063Y-99361462D01*
X147153548Y-99359811D01*
X147153327Y-99359401D01*
X147153369Y-99359363D01*
X147153208Y-99359180D01*
X147150265Y-99353726D01*
X147128145Y-99333278D01*
X147113219Y-99319481D01*
X147109652Y-99316051D01*
X146578166Y-98784564D01*
X146565492Y-98768871D01*
X146562673Y-98765773D01*
X146557025Y-98757026D01*
X146532633Y-98737797D01*
X146528603Y-98734216D01*
X146528520Y-98734314D01*
X146524563Y-98730961D01*
X146520882Y-98727280D01*
X146516648Y-98724254D01*
X146506289Y-98716851D01*
X146501544Y-98713288D01*
X146472105Y-98690080D01*
X146472103Y-98690079D01*
X146463925Y-98683632D01*
X146455820Y-98680786D01*
X146448829Y-98675790D01*
X146402938Y-98662066D01*
X146397293Y-98660232D01*
X146359553Y-98646979D01*
X146359550Y-98646978D01*
X146352071Y-98644352D01*
X146346852Y-98643900D01*
X146344141Y-98643900D01*
X146341864Y-98643802D01*
X146341415Y-98643667D01*
X146341417Y-98643613D01*
X146341184Y-98643598D01*
X146335248Y-98641823D01*
X146314946Y-98642621D01*
X146246094Y-98625310D01*
X146197529Y-98573521D01*
X146183999Y-98516718D01*
X146183999Y-98403434D01*
X146176888Y-98367682D01*
X146171656Y-98341374D01*
X146171655Y-98341372D01*
X146169234Y-98329199D01*
X146112984Y-98245016D01*
X146105481Y-98240003D01*
X146072579Y-98179744D01*
X146069700Y-98152964D01*
X146069700Y-98142500D01*
X146089702Y-98074379D01*
X146143358Y-98027886D01*
X146195700Y-98016500D01*
X154015485Y-98016500D01*
X154083606Y-98036502D01*
X154130099Y-98090158D01*
X154140203Y-98160432D01*
X154110709Y-98225012D01*
X154104580Y-98231595D01*
X154080483Y-98255692D01*
X154038132Y-98319075D01*
X154028816Y-98341566D01*
X154017707Y-98397415D01*
X154016500Y-98409670D01*
X154016500Y-98727885D01*
X154020975Y-98743124D01*
X154022365Y-98744329D01*
X154030048Y-98746000D01*
X155141384Y-98746000D01*
X155156623Y-98741525D01*
X155157828Y-98740135D01*
X155159499Y-98732452D01*
X155159499Y-98409672D01*
X155158291Y-98397412D01*
X155147185Y-98341569D01*
X155137867Y-98319073D01*
X155095517Y-98255692D01*
X155071420Y-98231595D01*
X155037394Y-98169283D01*
X155042459Y-98098468D01*
X155085006Y-98041632D01*
X155151526Y-98016821D01*
X155160515Y-98016500D01*
X155528300Y-98016500D01*
X155596421Y-98036502D01*
X155642914Y-98090158D01*
X155654300Y-98142500D01*
X155654300Y-98152964D01*
X155634298Y-98221085D01*
X155619675Y-98239230D01*
X155611016Y-98245016D01*
X155554766Y-98329199D01*
X155540000Y-98403433D01*
X155540001Y-99596566D01*
X155546877Y-99631135D01*
X155552306Y-99658431D01*
X155554766Y-99670801D01*
X155611016Y-99754984D01*
X155618519Y-99759997D01*
X155651421Y-99820256D01*
X155654300Y-99847036D01*
X155654300Y-100289093D01*
X155633065Y-100359095D01*
X155605266Y-100400699D01*
X155590500Y-100474933D01*
X155590500Y-100517900D01*
X155570498Y-100586021D01*
X155516842Y-100632514D01*
X155464500Y-100643900D01*
X155066428Y-100643900D01*
X155046379Y-100641766D01*
X155042189Y-100641568D01*
X155032007Y-100639376D01*
X155011814Y-100641766D01*
X155001160Y-100643027D01*
X154995785Y-100643344D01*
X154995796Y-100643472D01*
X154990618Y-100643900D01*
X154985416Y-100643900D01*
X154977155Y-100645275D01*
X154967757Y-100646839D01*
X154961885Y-100647674D01*
X154924626Y-100652084D01*
X154924619Y-100652086D01*
X154914278Y-100653310D01*
X154906532Y-100657030D01*
X154898058Y-100658440D01*
X154859452Y-100679270D01*
X154855891Y-100681192D01*
X154850604Y-100683885D01*
X154814558Y-100701195D01*
X154814555Y-100701197D01*
X154807410Y-100704628D01*
X154803400Y-100707999D01*
X154801462Y-100709937D01*
X154799811Y-100711452D01*
X154799401Y-100711673D01*
X154799363Y-100711631D01*
X154799180Y-100711792D01*
X154793726Y-100714735D01*
X154786658Y-100722382D01*
X154786657Y-100722382D01*
X154759481Y-100751781D01*
X154756051Y-100755348D01*
X154284564Y-101226834D01*
X154268871Y-101239508D01*
X154265773Y-101242327D01*
X154257026Y-101247975D01*
X154250580Y-101256152D01*
X154237797Y-101272367D01*
X154234216Y-101276397D01*
X154234314Y-101276480D01*
X154230961Y-101280437D01*
X154227280Y-101284118D01*
X154224256Y-101288350D01*
X154224254Y-101288352D01*
X154216851Y-101298711D01*
X154213288Y-101303456D01*
X154190080Y-101332895D01*
X154190079Y-101332897D01*
X154183632Y-101341075D01*
X154180786Y-101349180D01*
X154175790Y-101356171D01*
X154172806Y-101366150D01*
X154162066Y-101402062D01*
X154160232Y-101407707D01*
X154146979Y-101445447D01*
X154144352Y-101452929D01*
X154143900Y-101458148D01*
X154143900Y-101460859D01*
X154143802Y-101463136D01*
X154143667Y-101463585D01*
X154143613Y-101463583D01*
X154143598Y-101463816D01*
X154141823Y-101469752D01*
X154142715Y-101492457D01*
X154143803Y-101520150D01*
X154143900Y-101525096D01*
X154143900Y-106708572D01*
X154141766Y-106728621D01*
X154141568Y-106732811D01*
X154139376Y-106742993D01*
X154140600Y-106753334D01*
X154143027Y-106773840D01*
X154143344Y-106779215D01*
X154143472Y-106779204D01*
X154143900Y-106784382D01*
X154143900Y-106789584D01*
X154144754Y-106794714D01*
X154146839Y-106807243D01*
X154147674Y-106813115D01*
X154152084Y-106850374D01*
X154152086Y-106850381D01*
X154153310Y-106860722D01*
X154157030Y-106868468D01*
X154158440Y-106876942D01*
X154167101Y-106892993D01*
X154181192Y-106919109D01*
X154183885Y-106924396D01*
X154201195Y-106960442D01*
X154201197Y-106960445D01*
X154204628Y-106967590D01*
X154207999Y-106971600D01*
X154209937Y-106973538D01*
X154211452Y-106975189D01*
X154211673Y-106975599D01*
X154211631Y-106975637D01*
X154211792Y-106975820D01*
X154214735Y-106981274D01*
X154222382Y-106988342D01*
X154222382Y-106988343D01*
X154251794Y-107015531D01*
X154255360Y-107018961D01*
X154951832Y-107715433D01*
X154964504Y-107731122D01*
X154967324Y-107734222D01*
X154972975Y-107742974D01*
X154981152Y-107749420D01*
X154981154Y-107749422D01*
X154997367Y-107762203D01*
X155001397Y-107765784D01*
X155001480Y-107765686D01*
X155005437Y-107769039D01*
X155009118Y-107772720D01*
X155013350Y-107775744D01*
X155013352Y-107775746D01*
X155023711Y-107783149D01*
X155028456Y-107786712D01*
X155057895Y-107809920D01*
X155057897Y-107809921D01*
X155066075Y-107816368D01*
X155074180Y-107819214D01*
X155081171Y-107824210D01*
X155126776Y-107837849D01*
X155127062Y-107837934D01*
X155132707Y-107839768D01*
X155170447Y-107853021D01*
X155170450Y-107853022D01*
X155177929Y-107855648D01*
X155183148Y-107856100D01*
X155185859Y-107856100D01*
X155188136Y-107856198D01*
X155188585Y-107856333D01*
X155188583Y-107856387D01*
X155188816Y-107856402D01*
X155194752Y-107858177D01*
X155245150Y-107856197D01*
X155250096Y-107856100D01*
X157710308Y-107856100D01*
X157778429Y-107876102D01*
X157799404Y-107893005D01*
X158136968Y-108230570D01*
X158170993Y-108292882D01*
X158165928Y-108363698D01*
X158152640Y-108389664D01*
X158145266Y-108400699D01*
X158130500Y-108474933D01*
X158130501Y-109525066D01*
X158137612Y-109560818D01*
X158142806Y-109586931D01*
X158145266Y-109599301D01*
X158152161Y-109609620D01*
X158152162Y-109609622D01*
X158160999Y-109622847D01*
X158201516Y-109683484D01*
X158285699Y-109739734D01*
X158359933Y-109754500D01*
X158634955Y-109754500D01*
X158910066Y-109754499D01*
X158945818Y-109747388D01*
X158972126Y-109742156D01*
X158972128Y-109742155D01*
X158984301Y-109739734D01*
X158994621Y-109732839D01*
X158994622Y-109732838D01*
X159058168Y-109690377D01*
X159068484Y-109683484D01*
X159124734Y-109599301D01*
X159139500Y-109525067D01*
X159139500Y-109518828D01*
X159401001Y-109518828D01*
X159402209Y-109531088D01*
X159413315Y-109586931D01*
X159422633Y-109609427D01*
X159464983Y-109672808D01*
X159482192Y-109690017D01*
X159545575Y-109732368D01*
X159568066Y-109741684D01*
X159623915Y-109752793D01*
X159636170Y-109754000D01*
X159636885Y-109754000D01*
X159652124Y-109749525D01*
X159653329Y-109748135D01*
X159655000Y-109740452D01*
X159655000Y-109735884D01*
X160155000Y-109735884D01*
X160159475Y-109751123D01*
X160160865Y-109752328D01*
X160168548Y-109753999D01*
X160173828Y-109753999D01*
X160186088Y-109752791D01*
X160241931Y-109741685D01*
X160264427Y-109732367D01*
X160327808Y-109690017D01*
X160345017Y-109672808D01*
X160387368Y-109609425D01*
X160396684Y-109586934D01*
X160407793Y-109531085D01*
X160409000Y-109518830D01*
X160409000Y-109268115D01*
X160404525Y-109252876D01*
X160403135Y-109251671D01*
X160395452Y-109250000D01*
X160173115Y-109250000D01*
X160157876Y-109254475D01*
X160156671Y-109255865D01*
X160155000Y-109263548D01*
X160155000Y-109735884D01*
X159655000Y-109735884D01*
X159655000Y-109268115D01*
X159650525Y-109252876D01*
X159649135Y-109251671D01*
X159641452Y-109250000D01*
X159419116Y-109250000D01*
X159403877Y-109254475D01*
X159402672Y-109255865D01*
X159401001Y-109263548D01*
X159401001Y-109518828D01*
X159139500Y-109518828D01*
X159139499Y-108731885D01*
X159401000Y-108731885D01*
X159405475Y-108747124D01*
X159406865Y-108748329D01*
X159414548Y-108750000D01*
X159636885Y-108750000D01*
X159652124Y-108745525D01*
X159653329Y-108744135D01*
X159655000Y-108736452D01*
X159655000Y-108731885D01*
X160155000Y-108731885D01*
X160159475Y-108747124D01*
X160160865Y-108748329D01*
X160168548Y-108750000D01*
X160390884Y-108750000D01*
X160406123Y-108745525D01*
X160407328Y-108744135D01*
X160408999Y-108736452D01*
X160408999Y-108481172D01*
X160407791Y-108468912D01*
X160396685Y-108413069D01*
X160387367Y-108390573D01*
X160345017Y-108327192D01*
X160327808Y-108309983D01*
X160264425Y-108267632D01*
X160241934Y-108258316D01*
X160186085Y-108247207D01*
X160173830Y-108246000D01*
X160173115Y-108246000D01*
X160157876Y-108250475D01*
X160156671Y-108251865D01*
X160155000Y-108259548D01*
X160155000Y-108731885D01*
X159655000Y-108731885D01*
X159655000Y-108264116D01*
X159650525Y-108248877D01*
X159649135Y-108247672D01*
X159641452Y-108246001D01*
X159636172Y-108246001D01*
X159623912Y-108247209D01*
X159568069Y-108258315D01*
X159545573Y-108267633D01*
X159482192Y-108309983D01*
X159464983Y-108327192D01*
X159422632Y-108390575D01*
X159413316Y-108413066D01*
X159402207Y-108468915D01*
X159401000Y-108481170D01*
X159401000Y-108731885D01*
X159139499Y-108731885D01*
X159139499Y-108474934D01*
X159129195Y-108423129D01*
X159127156Y-108412874D01*
X159127155Y-108412872D01*
X159124734Y-108400699D01*
X159117362Y-108389665D01*
X159075377Y-108326832D01*
X159068484Y-108316516D01*
X159058167Y-108309622D01*
X159058166Y-108309621D01*
X159047242Y-108302322D01*
X159001714Y-108247846D01*
X158992118Y-108212381D01*
X158991975Y-108211174D01*
X158991657Y-108205785D01*
X158991528Y-108205796D01*
X158991100Y-108200618D01*
X158991100Y-108195416D01*
X158988161Y-108177757D01*
X158987326Y-108171885D01*
X158982916Y-108134626D01*
X158982914Y-108134619D01*
X158981690Y-108124278D01*
X158977970Y-108116532D01*
X158976560Y-108108058D01*
X158953808Y-108065891D01*
X158951115Y-108060604D01*
X158933805Y-108024558D01*
X158933803Y-108024555D01*
X158930372Y-108017410D01*
X158927001Y-108013400D01*
X158925063Y-108011462D01*
X158923548Y-108009811D01*
X158923327Y-108009401D01*
X158923369Y-108009363D01*
X158923208Y-108009180D01*
X158920265Y-108003726D01*
X158883205Y-107969468D01*
X158879640Y-107966039D01*
X158198168Y-107284567D01*
X158185496Y-107268878D01*
X158182676Y-107265778D01*
X158177025Y-107257026D01*
X158152633Y-107237797D01*
X158148603Y-107234216D01*
X158148520Y-107234314D01*
X158144563Y-107230961D01*
X158140882Y-107227280D01*
X158136648Y-107224254D01*
X158126289Y-107216851D01*
X158121544Y-107213288D01*
X158083925Y-107183632D01*
X158085010Y-107182255D01*
X158043560Y-107140563D01*
X158028670Y-107071145D01*
X158053673Y-107004698D01*
X158110632Y-106962316D01*
X158154319Y-106954499D01*
X160175066Y-106954499D01*
X160210818Y-106947388D01*
X160237126Y-106942156D01*
X160237128Y-106942155D01*
X160249301Y-106939734D01*
X160259621Y-106932839D01*
X160259622Y-106932838D01*
X160323168Y-106890377D01*
X160333484Y-106883484D01*
X160389734Y-106799301D01*
X160404500Y-106725067D01*
X160404499Y-103274934D01*
X160389734Y-103200699D01*
X160333484Y-103116516D01*
X160249301Y-103060266D01*
X160175067Y-103045500D01*
X158000176Y-103045500D01*
X155824934Y-103045501D01*
X155789182Y-103052612D01*
X155762874Y-103057844D01*
X155762872Y-103057845D01*
X155750699Y-103060266D01*
X155740379Y-103067161D01*
X155740378Y-103067162D01*
X155701220Y-103093327D01*
X155666516Y-103116516D01*
X155610266Y-103200699D01*
X155595500Y-103274933D01*
X155595501Y-106725066D01*
X155601762Y-106756545D01*
X155606269Y-106779204D01*
X155610266Y-106799301D01*
X155617161Y-106809620D01*
X155617162Y-106809622D01*
X155657229Y-106869585D01*
X155666516Y-106883484D01*
X155710893Y-106913136D01*
X155756419Y-106967613D01*
X155765266Y-107038056D01*
X155734625Y-107102100D01*
X155674223Y-107139411D01*
X155640889Y-107143900D01*
X155439692Y-107143900D01*
X155371571Y-107123898D01*
X155350596Y-107106995D01*
X154893004Y-106649402D01*
X154858979Y-106587090D01*
X154856100Y-106560307D01*
X154856100Y-101714692D01*
X154876102Y-101646571D01*
X154893005Y-101625596D01*
X155125598Y-101393004D01*
X155187910Y-101358979D01*
X155214693Y-101356100D01*
X155464501Y-101356100D01*
X155532622Y-101376102D01*
X155579115Y-101429758D01*
X155590501Y-101482100D01*
X155590501Y-101525066D01*
X155605266Y-101599301D01*
X155661516Y-101683484D01*
X155745699Y-101739734D01*
X155819933Y-101754500D01*
X156094955Y-101754500D01*
X156370066Y-101754499D01*
X156405818Y-101747388D01*
X156432126Y-101742156D01*
X156432128Y-101742155D01*
X156444301Y-101739734D01*
X156454621Y-101732839D01*
X156454622Y-101732838D01*
X156518168Y-101690377D01*
X156528484Y-101683484D01*
X156584734Y-101599301D01*
X156599500Y-101525067D01*
X156599499Y-100474934D01*
X156584734Y-100400699D01*
X156578913Y-100391987D01*
X156569700Y-100345668D01*
X156569700Y-99847036D01*
X156589702Y-99778915D01*
X156604325Y-99760770D01*
X156612984Y-99754984D01*
X156669234Y-99670801D01*
X156684000Y-99596567D01*
X156686441Y-99597053D01*
X156708906Y-99541374D01*
X156766848Y-99500348D01*
X156837774Y-99497161D01*
X156896833Y-99530434D01*
X156971995Y-99605596D01*
X157006021Y-99667908D01*
X157008900Y-99694691D01*
X157008900Y-100197461D01*
X156988898Y-100265582D01*
X156952903Y-100302225D01*
X156941833Y-100309622D01*
X156931516Y-100316516D01*
X156924623Y-100326832D01*
X156890282Y-100378227D01*
X156875266Y-100400699D01*
X156860500Y-100474933D01*
X156860501Y-101525066D01*
X156875266Y-101599301D01*
X156931516Y-101683484D01*
X157015699Y-101739734D01*
X157089933Y-101754500D01*
X157364955Y-101754500D01*
X157640066Y-101754499D01*
X157675818Y-101747388D01*
X157702126Y-101742156D01*
X157702128Y-101742155D01*
X157714301Y-101739734D01*
X157724621Y-101732839D01*
X157724622Y-101732838D01*
X157788168Y-101690377D01*
X157798484Y-101683484D01*
X157854734Y-101599301D01*
X157869500Y-101525067D01*
X157869499Y-100474934D01*
X157854734Y-100400699D01*
X157847813Y-100390340D01*
X157805377Y-100326832D01*
X157798484Y-100316516D01*
X157788167Y-100309622D01*
X157777097Y-100302225D01*
X157731570Y-100247748D01*
X157721100Y-100197461D01*
X157721100Y-99893564D01*
X158015453Y-99893564D01*
X158031657Y-100040340D01*
X158034267Y-100047472D01*
X158060582Y-100119381D01*
X158082404Y-100179014D01*
X158086639Y-100185317D01*
X158086642Y-100185322D01*
X158142041Y-100267765D01*
X158163433Y-100335462D01*
X158153868Y-100386257D01*
X158152159Y-100390383D01*
X158145266Y-100400699D01*
X158142845Y-100412868D01*
X158142845Y-100412869D01*
X158142844Y-100412874D01*
X158130500Y-100474933D01*
X158130501Y-101525066D01*
X158145266Y-101599301D01*
X158201516Y-101683484D01*
X158285699Y-101739734D01*
X158359933Y-101754500D01*
X158634955Y-101754500D01*
X158910066Y-101754499D01*
X158945818Y-101747388D01*
X158972126Y-101742156D01*
X158972128Y-101742155D01*
X158984301Y-101739734D01*
X158994621Y-101732839D01*
X158994622Y-101732838D01*
X159058168Y-101690377D01*
X159068484Y-101683484D01*
X159124734Y-101599301D01*
X159139500Y-101525067D01*
X159139499Y-100474934D01*
X159124734Y-100400699D01*
X159117838Y-100390378D01*
X159113089Y-100378913D01*
X159116788Y-100377381D01*
X159102307Y-100331128D01*
X159121092Y-100262662D01*
X159125964Y-100255357D01*
X159139850Y-100236033D01*
X159168561Y-100196077D01*
X159199393Y-100119381D01*
X159243360Y-100063637D01*
X159310485Y-100040512D01*
X159379456Y-100057349D01*
X159428376Y-100108802D01*
X159442300Y-100166378D01*
X159442300Y-100322018D01*
X159425250Y-100378227D01*
X159426910Y-100378915D01*
X159422162Y-100390378D01*
X159415266Y-100400699D01*
X159400500Y-100474933D01*
X159400501Y-101525066D01*
X159415266Y-101599301D01*
X159471516Y-101683484D01*
X159555699Y-101739734D01*
X159629933Y-101754500D01*
X159904955Y-101754500D01*
X160180066Y-101754499D01*
X160215818Y-101747388D01*
X160242126Y-101742156D01*
X160242128Y-101742155D01*
X160254301Y-101739734D01*
X160264621Y-101732839D01*
X160264622Y-101732838D01*
X160328168Y-101690377D01*
X160338484Y-101683484D01*
X160394734Y-101599301D01*
X160409500Y-101525067D01*
X160409499Y-100474934D01*
X160394734Y-100400699D01*
X160387813Y-100390340D01*
X160378935Y-100377054D01*
X160357700Y-100307052D01*
X160357700Y-99449183D01*
X160381377Y-99375657D01*
X160387303Y-99367410D01*
X160438561Y-99296077D01*
X160454804Y-99255671D01*
X160490805Y-99166118D01*
X160490806Y-99166116D01*
X160493640Y-99159065D01*
X160502317Y-99098097D01*
X160513865Y-99016955D01*
X160513865Y-99016952D01*
X160514446Y-99012871D01*
X160514581Y-99000000D01*
X160496841Y-98853402D01*
X160444644Y-98715267D01*
X160436463Y-98703363D01*
X160365306Y-98599829D01*
X160365305Y-98599827D01*
X160361004Y-98593570D01*
X160334822Y-98570242D01*
X160281552Y-98522781D01*
X160250750Y-98495337D01*
X160243866Y-98491692D01*
X160126957Y-98429792D01*
X160126955Y-98429791D01*
X160120246Y-98426239D01*
X160054083Y-98409620D01*
X159984398Y-98392116D01*
X159984394Y-98392116D01*
X159977027Y-98390265D01*
X159969428Y-98390225D01*
X159969426Y-98390225D01*
X159907798Y-98389903D01*
X159829362Y-98389492D01*
X159821982Y-98391264D01*
X159821980Y-98391264D01*
X159693153Y-98422192D01*
X159693149Y-98422193D01*
X159685774Y-98423964D01*
X159554554Y-98491692D01*
X159548832Y-98496684D01*
X159548830Y-98496685D01*
X159449004Y-98583769D01*
X159443277Y-98588765D01*
X159358368Y-98709579D01*
X159355609Y-98716654D01*
X159355608Y-98716657D01*
X159307818Y-98839233D01*
X159304727Y-98847160D01*
X159303735Y-98854693D01*
X159303735Y-98854694D01*
X159293507Y-98932390D01*
X159285453Y-98993564D01*
X159301657Y-99140340D01*
X159304267Y-99147472D01*
X159345397Y-99259865D01*
X159352404Y-99279014D01*
X159356640Y-99285317D01*
X159356640Y-99285318D01*
X159420882Y-99380920D01*
X159442300Y-99451196D01*
X159442300Y-99633687D01*
X159422298Y-99701808D01*
X159368642Y-99748301D01*
X159298368Y-99758405D01*
X159233788Y-99728911D01*
X159198434Y-99678225D01*
X159177328Y-99622370D01*
X159174644Y-99615267D01*
X159114500Y-99527757D01*
X159095306Y-99499829D01*
X159095305Y-99499827D01*
X159091004Y-99493570D01*
X159077076Y-99481160D01*
X158995452Y-99408436D01*
X158980750Y-99395337D01*
X158969609Y-99389438D01*
X158856957Y-99329792D01*
X158856955Y-99329791D01*
X158850246Y-99326239D01*
X158803340Y-99314457D01*
X158714398Y-99292116D01*
X158714394Y-99292116D01*
X158707027Y-99290265D01*
X158699428Y-99290225D01*
X158699426Y-99290225D01*
X158637798Y-99289903D01*
X158559362Y-99289492D01*
X158551982Y-99291264D01*
X158551980Y-99291264D01*
X158423153Y-99322192D01*
X158423149Y-99322193D01*
X158415774Y-99323964D01*
X158333489Y-99366434D01*
X158304671Y-99381309D01*
X158284554Y-99391692D01*
X158278832Y-99396684D01*
X158278830Y-99396685D01*
X158223652Y-99444820D01*
X158173277Y-99488765D01*
X158088368Y-99609579D01*
X158085609Y-99616654D01*
X158085608Y-99616657D01*
X158038217Y-99738209D01*
X158034727Y-99747160D01*
X158033735Y-99754693D01*
X158033735Y-99754694D01*
X158017963Y-99874502D01*
X158015453Y-99893564D01*
X157721100Y-99893564D01*
X157721100Y-99546432D01*
X157723235Y-99526371D01*
X157723432Y-99522187D01*
X157725624Y-99512007D01*
X157721973Y-99481160D01*
X157721656Y-99475785D01*
X157721528Y-99475796D01*
X157721100Y-99470618D01*
X157721100Y-99465416D01*
X157718161Y-99447757D01*
X157717326Y-99441885D01*
X157712916Y-99404626D01*
X157712914Y-99404619D01*
X157711690Y-99394278D01*
X157707970Y-99386532D01*
X157706560Y-99378058D01*
X157683808Y-99335891D01*
X157681115Y-99330604D01*
X157663805Y-99294558D01*
X157663803Y-99294555D01*
X157660372Y-99287410D01*
X157657001Y-99283400D01*
X157655063Y-99281462D01*
X157653548Y-99279811D01*
X157653327Y-99279401D01*
X157653369Y-99279363D01*
X157653208Y-99279180D01*
X157650265Y-99273726D01*
X157629824Y-99254830D01*
X157613219Y-99239481D01*
X157609652Y-99236051D01*
X157158166Y-98784564D01*
X157145492Y-98768871D01*
X157142673Y-98765773D01*
X157137025Y-98757026D01*
X157112633Y-98737797D01*
X157108603Y-98734216D01*
X157108520Y-98734314D01*
X157104563Y-98730961D01*
X157100882Y-98727280D01*
X157096648Y-98724254D01*
X157086289Y-98716851D01*
X157081544Y-98713288D01*
X157052105Y-98690080D01*
X157052103Y-98690079D01*
X157043925Y-98683632D01*
X157035820Y-98680786D01*
X157028829Y-98675790D01*
X156982938Y-98662066D01*
X156977293Y-98660232D01*
X156939553Y-98646979D01*
X156939550Y-98646978D01*
X156932071Y-98644352D01*
X156926852Y-98643900D01*
X156924141Y-98643900D01*
X156921864Y-98643802D01*
X156921415Y-98643667D01*
X156921417Y-98643613D01*
X156921184Y-98643598D01*
X156915248Y-98641823D01*
X156865385Y-98643782D01*
X156864850Y-98643803D01*
X156859904Y-98643900D01*
X156809999Y-98643900D01*
X156741878Y-98623898D01*
X156695385Y-98570242D01*
X156683999Y-98517900D01*
X156683999Y-98403434D01*
X156676888Y-98367682D01*
X156671656Y-98341374D01*
X156671655Y-98341372D01*
X156669234Y-98329199D01*
X156612984Y-98245016D01*
X156605481Y-98240003D01*
X156572579Y-98179744D01*
X156569700Y-98152964D01*
X156569700Y-97954503D01*
X156589702Y-97886382D01*
X156624281Y-97851273D01*
X156625244Y-97850761D01*
X156630016Y-97846869D01*
X156630019Y-97846867D01*
X156774951Y-97728663D01*
X156774954Y-97728660D01*
X156779726Y-97724768D01*
X156815833Y-97681123D01*
X156890902Y-97590380D01*
X156906794Y-97571170D01*
X157001608Y-97395815D01*
X157060556Y-97205385D01*
X157081393Y-97007131D01*
X157063326Y-96808605D01*
X157007042Y-96617370D01*
X156914686Y-96440709D01*
X156789775Y-96285351D01*
X156637067Y-96157214D01*
X156462379Y-96061179D01*
X156456512Y-96059318D01*
X156456510Y-96059317D01*
X156278242Y-96002766D01*
X156278239Y-96002765D01*
X156272365Y-96000902D01*
X156117216Y-95983500D01*
X142518365Y-95983500D01*
X142504757Y-95982763D01*
X142472910Y-95979303D01*
X142472906Y-95979303D01*
X142466785Y-95978638D01*
X142429917Y-95981863D01*
X142416399Y-95983046D01*
X142411571Y-95983375D01*
X142409016Y-95983500D01*
X142405932Y-95983500D01*
X142390558Y-95985008D01*
X142362870Y-95987722D01*
X142361557Y-95987844D01*
X142321460Y-95991352D01*
X142268197Y-95996012D01*
X142263037Y-95997511D01*
X142257695Y-95998035D01*
X142167993Y-96025117D01*
X142166853Y-96025455D01*
X142076767Y-96051628D01*
X142071999Y-96054100D01*
X142066857Y-96055652D01*
X142061412Y-96058547D01*
X142061405Y-96058550D01*
X141984139Y-96099633D01*
X141983035Y-96100213D01*
X141899785Y-96143366D01*
X141895586Y-96146718D01*
X141890845Y-96149239D01*
X141886073Y-96153131D01*
X141818260Y-96208438D01*
X141817234Y-96209266D01*
X141780525Y-96238571D01*
X141777773Y-96240768D01*
X141775278Y-96243263D01*
X141774484Y-96243973D01*
X141770129Y-96247693D01*
X141741138Y-96271337D01*
X141741135Y-96271340D01*
X141736363Y-96275232D01*
X141732435Y-96279980D01*
X141732434Y-96279981D01*
X141706878Y-96310873D01*
X141698889Y-96319652D01*
X139575267Y-98443274D01*
X139565125Y-98452375D01*
X139535351Y-98476314D01*
X139502813Y-98515091D01*
X139499649Y-98518718D01*
X139497954Y-98520587D01*
X139495760Y-98522781D01*
X139468188Y-98556347D01*
X139467526Y-98557144D01*
X139407214Y-98629022D01*
X139404627Y-98633728D01*
X139401218Y-98637878D01*
X139398310Y-98643302D01*
X139398303Y-98643312D01*
X139356939Y-98720457D01*
X139356310Y-98721617D01*
X139311179Y-98803710D01*
X139309555Y-98808830D01*
X139307017Y-98813563D01*
X139294837Y-98853402D01*
X139279648Y-98903082D01*
X139279256Y-98904341D01*
X139252765Y-98987850D01*
X139250902Y-98993724D01*
X139250303Y-98999062D01*
X139248733Y-99004198D01*
X139243163Y-99059039D01*
X139239263Y-99097432D01*
X139239134Y-99098640D01*
X139233500Y-99148873D01*
X139233500Y-99152378D01*
X139233438Y-99153486D01*
X139232990Y-99159181D01*
X139229210Y-99196394D01*
X139229210Y-99196401D01*
X139228588Y-99202524D01*
X139232238Y-99241137D01*
X139232941Y-99248574D01*
X139233500Y-99260432D01*
X139233500Y-111396762D01*
X139213498Y-111464883D01*
X139196595Y-111485857D01*
X137735857Y-112946595D01*
X137673545Y-112980621D01*
X137646762Y-112983500D01*
X137289843Y-112983500D01*
X137286787Y-112983800D01*
X137286780Y-112983800D01*
X137227759Y-112989587D01*
X137141606Y-112998035D01*
X137135707Y-112999816D01*
X137135702Y-112999817D01*
X136973771Y-113048707D01*
X136950768Y-113055652D01*
X136774756Y-113149239D01*
X136770175Y-113152975D01*
X136700533Y-113174000D01*
X136240529Y-113174001D01*
X136169434Y-113174001D01*
X136133682Y-113181112D01*
X136107374Y-113186344D01*
X136107372Y-113186345D01*
X136095199Y-113188766D01*
X136084879Y-113195661D01*
X136084878Y-113195662D01*
X136024485Y-113236016D01*
X136011016Y-113245016D01*
X135954766Y-113329199D01*
X135940000Y-113403433D01*
X135940001Y-114596566D01*
X135954766Y-114670801D01*
X135980958Y-114709999D01*
X136002172Y-114777750D01*
X135983389Y-114846217D01*
X135930572Y-114893661D01*
X135876192Y-114906000D01*
X135623808Y-114906000D01*
X135555687Y-114885998D01*
X135509194Y-114832342D01*
X135499090Y-114762068D01*
X135519042Y-114710000D01*
X135545234Y-114670801D01*
X135560000Y-114596567D01*
X135559999Y-113403434D01*
X135545234Y-113329199D01*
X135509977Y-113276433D01*
X135495877Y-113255332D01*
X135488984Y-113245016D01*
X135404801Y-113188766D01*
X135330567Y-113174000D01*
X134988056Y-113174000D01*
X134645434Y-113174001D01*
X134609682Y-113181112D01*
X134583374Y-113186344D01*
X134583372Y-113186345D01*
X134571199Y-113188766D01*
X134560879Y-113195661D01*
X134560878Y-113195662D01*
X134500485Y-113236016D01*
X134487016Y-113245016D01*
X134430766Y-113329199D01*
X134416000Y-113403433D01*
X134416000Y-113416300D01*
X134395998Y-113484421D01*
X134342342Y-113530914D01*
X134290000Y-113542300D01*
X134277499Y-113542300D01*
X134209378Y-113522298D01*
X134162885Y-113468642D01*
X134151499Y-113416300D01*
X134151499Y-113276434D01*
X134143879Y-113238123D01*
X134139156Y-113214374D01*
X134139155Y-113214372D01*
X134136734Y-113202199D01*
X134127759Y-113188766D01*
X134087377Y-113128332D01*
X134080484Y-113118016D01*
X133996301Y-113061766D01*
X133986615Y-113059839D01*
X133932701Y-113016393D01*
X133910200Y-112944532D01*
X133910200Y-112572751D01*
X133930202Y-112504630D01*
X133984949Y-112457645D01*
X133986538Y-112456937D01*
X133992013Y-112455079D01*
X133997056Y-112452255D01*
X133997060Y-112452253D01*
X134170629Y-112355049D01*
X134185159Y-112346912D01*
X134355359Y-112205359D01*
X134496912Y-112035159D01*
X134588212Y-111872131D01*
X134638946Y-111822472D01*
X134698144Y-111807700D01*
X134843918Y-111807700D01*
X134912039Y-111827702D01*
X134958344Y-111880948D01*
X134992404Y-111954830D01*
X135120167Y-112135611D01*
X135124301Y-112139638D01*
X135266104Y-112277776D01*
X135278736Y-112290082D01*
X135283532Y-112293287D01*
X135283535Y-112293289D01*
X135435218Y-112394640D01*
X135462800Y-112413070D01*
X135468103Y-112415348D01*
X135468106Y-112415350D01*
X135625220Y-112482851D01*
X135666195Y-112500455D01*
X135745673Y-112518439D01*
X135876471Y-112548036D01*
X135876476Y-112548037D01*
X135882108Y-112549311D01*
X135887879Y-112549538D01*
X135887881Y-112549538D01*
X135955501Y-112552195D01*
X136103309Y-112558002D01*
X136231908Y-112539356D01*
X136316668Y-112527067D01*
X136316672Y-112527066D01*
X136322390Y-112526237D01*
X136327862Y-112524379D01*
X136327864Y-112524379D01*
X136500215Y-112465873D01*
X136532013Y-112455079D01*
X136546320Y-112447067D01*
X136710629Y-112355049D01*
X136725159Y-112346912D01*
X136895359Y-112205359D01*
X137036912Y-112035159D01*
X137145079Y-111842013D01*
X137216237Y-111632390D01*
X137248002Y-111413309D01*
X137249660Y-111350000D01*
X137229404Y-111129557D01*
X137220645Y-111098498D01*
X137170884Y-110922061D01*
X137169315Y-110916497D01*
X137071405Y-110717954D01*
X137028947Y-110661095D01*
X136942406Y-110545203D01*
X136942405Y-110545202D01*
X136938953Y-110540579D01*
X136923462Y-110526259D01*
X136780634Y-110394231D01*
X136780632Y-110394229D01*
X136776394Y-110390312D01*
X136589174Y-110272185D01*
X136395794Y-110195034D01*
X136339934Y-110151213D01*
X136316634Y-110084149D01*
X136333290Y-110015134D01*
X136384614Y-109966079D01*
X136401983Y-109958691D01*
X136526341Y-109916477D01*
X136536844Y-109911801D01*
X136678568Y-109832433D01*
X136688431Y-109822356D01*
X136685476Y-109814686D01*
X136052812Y-109182022D01*
X136038868Y-109174408D01*
X136037035Y-109174539D01*
X136030420Y-109178790D01*
X135400045Y-109809165D01*
X135393849Y-109820512D01*
X135403729Y-109832999D01*
X135458239Y-109869421D01*
X135468344Y-109874908D01*
X135661049Y-109957700D01*
X135673135Y-109961627D01*
X135731742Y-110001698D01*
X135759381Y-110067094D01*
X135747277Y-110137051D01*
X135699273Y-110189359D01*
X135677814Y-110199673D01*
X135588045Y-110232791D01*
X135519228Y-110258179D01*
X135514267Y-110261131D01*
X135514266Y-110261131D01*
X135361108Y-110352251D01*
X135328980Y-110371365D01*
X135162544Y-110517325D01*
X135158977Y-110521850D01*
X135158972Y-110521855D01*
X135069016Y-110635965D01*
X135025494Y-110691172D01*
X135022805Y-110696283D01*
X135022803Y-110696286D01*
X134955100Y-110824968D01*
X134905681Y-110875940D01*
X134843592Y-110892300D01*
X134695734Y-110892300D01*
X134627613Y-110872298D01*
X134582728Y-110822028D01*
X134533960Y-110723134D01*
X134533957Y-110723130D01*
X134531405Y-110717954D01*
X134488947Y-110661095D01*
X134402406Y-110545203D01*
X134402405Y-110545202D01*
X134398953Y-110540579D01*
X134383462Y-110526259D01*
X134240634Y-110394231D01*
X134240632Y-110394229D01*
X134236394Y-110390312D01*
X134049174Y-110272185D01*
X133855794Y-110195034D01*
X133799934Y-110151213D01*
X133776634Y-110084149D01*
X133793290Y-110015134D01*
X133844614Y-109966079D01*
X133861983Y-109958691D01*
X133986341Y-109916477D01*
X133996844Y-109911801D01*
X134138568Y-109832433D01*
X134148431Y-109822356D01*
X134145476Y-109814686D01*
X133512812Y-109182022D01*
X133498868Y-109174408D01*
X133497035Y-109174539D01*
X133490420Y-109178790D01*
X132860045Y-109809165D01*
X132853849Y-109820512D01*
X132863729Y-109832999D01*
X132918239Y-109869421D01*
X132928344Y-109874908D01*
X133121049Y-109957700D01*
X133133135Y-109961627D01*
X133191742Y-110001698D01*
X133219381Y-110067094D01*
X133207277Y-110137051D01*
X133159273Y-110189359D01*
X133137814Y-110199673D01*
X133048045Y-110232791D01*
X132979228Y-110258179D01*
X132974267Y-110261131D01*
X132974266Y-110261131D01*
X132821108Y-110352251D01*
X132788980Y-110371365D01*
X132622544Y-110517325D01*
X132618977Y-110521850D01*
X132618972Y-110521855D01*
X132529016Y-110635965D01*
X132485494Y-110691172D01*
X132482805Y-110696283D01*
X132482803Y-110696286D01*
X132471403Y-110717954D01*
X132382420Y-110887083D01*
X132316774Y-111098498D01*
X132316095Y-111104233D01*
X132316095Y-111104234D01*
X132313098Y-111129557D01*
X132290755Y-111318335D01*
X132305233Y-111539233D01*
X132359724Y-111753793D01*
X132452404Y-111954830D01*
X132580167Y-112135611D01*
X132584301Y-112139638D01*
X132726104Y-112277776D01*
X132738736Y-112290082D01*
X132743532Y-112293287D01*
X132743535Y-112293289D01*
X132895218Y-112394640D01*
X132922800Y-112413070D01*
X132928111Y-112415352D01*
X132928920Y-112415791D01*
X132979242Y-112465873D01*
X132994800Y-112526523D01*
X132994800Y-112944532D01*
X132974798Y-113012653D01*
X132918321Y-113059852D01*
X132908699Y-113061766D01*
X132824516Y-113118016D01*
X132768266Y-113202199D01*
X132753500Y-113276433D01*
X132753501Y-114723566D01*
X132759837Y-114755418D01*
X132759837Y-114755420D01*
X132753508Y-114826134D01*
X132709953Y-114882201D01*
X132636258Y-114906000D01*
X132363233Y-114906000D01*
X132295112Y-114885998D01*
X132248619Y-114832342D01*
X132239654Y-114755418D01*
X132244793Y-114729582D01*
X132246000Y-114717330D01*
X132246000Y-114272115D01*
X132241525Y-114256876D01*
X132240135Y-114255671D01*
X132232452Y-114254000D01*
X130867116Y-114254000D01*
X130851877Y-114258475D01*
X130850672Y-114259865D01*
X130849001Y-114267548D01*
X130849001Y-114717328D01*
X130850208Y-114729585D01*
X130855347Y-114755420D01*
X130849019Y-114826134D01*
X130805464Y-114882201D01*
X130731768Y-114906000D01*
X129830000Y-114906000D01*
X129761879Y-114885998D01*
X129715386Y-114832342D01*
X129704000Y-114780000D01*
X129704000Y-113727885D01*
X130849000Y-113727885D01*
X130853475Y-113743124D01*
X130854865Y-113744329D01*
X130862548Y-113746000D01*
X131275385Y-113746000D01*
X131290624Y-113741525D01*
X131291829Y-113740135D01*
X131293500Y-113732452D01*
X131293500Y-113727885D01*
X131801500Y-113727885D01*
X131805975Y-113743124D01*
X131807365Y-113744329D01*
X131815048Y-113746000D01*
X132227884Y-113746000D01*
X132243123Y-113741525D01*
X132244328Y-113740135D01*
X132245999Y-113732452D01*
X132245999Y-113282672D01*
X132244791Y-113270412D01*
X132233685Y-113214569D01*
X132224367Y-113192073D01*
X132182017Y-113128692D01*
X132164808Y-113111483D01*
X132101425Y-113069132D01*
X132078934Y-113059816D01*
X132023085Y-113048707D01*
X132010830Y-113047500D01*
X131819615Y-113047500D01*
X131804376Y-113051975D01*
X131803171Y-113053365D01*
X131801500Y-113061048D01*
X131801500Y-113727885D01*
X131293500Y-113727885D01*
X131293500Y-113065616D01*
X131289025Y-113050377D01*
X131287635Y-113049172D01*
X131279952Y-113047501D01*
X131084172Y-113047501D01*
X131071912Y-113048709D01*
X131016069Y-113059815D01*
X130993573Y-113069133D01*
X130930192Y-113111483D01*
X130912983Y-113128692D01*
X130870632Y-113192075D01*
X130861316Y-113214566D01*
X130850207Y-113270415D01*
X130849000Y-113282670D01*
X130849000Y-113727885D01*
X129704000Y-113727885D01*
X129704000Y-108784114D01*
X132291634Y-108784114D01*
X132305351Y-108993386D01*
X132307152Y-109004756D01*
X132358775Y-109208025D01*
X132362616Y-109218872D01*
X132450418Y-109409331D01*
X132456172Y-109419297D01*
X132476906Y-109448634D01*
X132487495Y-109457022D01*
X132500796Y-109449994D01*
X133127978Y-108822812D01*
X133134356Y-108811132D01*
X133864408Y-108811132D01*
X133864539Y-108812965D01*
X133868790Y-108819580D01*
X134500770Y-109451560D01*
X134513150Y-109458320D01*
X134519730Y-109453394D01*
X134601801Y-109306844D01*
X134606477Y-109296341D01*
X134649780Y-109168775D01*
X134690617Y-109110698D01*
X134756370Y-109083920D01*
X134826162Y-109096941D01*
X134877835Y-109145628D01*
X134891216Y-109178262D01*
X134898774Y-109208023D01*
X134902616Y-109218872D01*
X134990418Y-109409331D01*
X134996172Y-109419297D01*
X135016906Y-109448634D01*
X135027495Y-109457022D01*
X135040796Y-109449994D01*
X135667978Y-108822812D01*
X135674356Y-108811132D01*
X136404408Y-108811132D01*
X136404539Y-108812965D01*
X136408790Y-108819580D01*
X137040770Y-109451560D01*
X137053150Y-109458320D01*
X137059730Y-109453394D01*
X137141801Y-109306844D01*
X137146477Y-109296341D01*
X137213893Y-109097741D01*
X137216578Y-109086558D01*
X137246968Y-108876956D01*
X137247598Y-108869573D01*
X137249061Y-108813704D01*
X137248818Y-108806305D01*
X137229440Y-108595402D01*
X137227343Y-108584088D01*
X137170414Y-108382236D01*
X137166292Y-108371497D01*
X137073534Y-108183403D01*
X137067517Y-108173583D01*
X137064723Y-108169842D01*
X137053464Y-108161392D01*
X137041046Y-108168164D01*
X136412022Y-108797188D01*
X136404408Y-108811132D01*
X135674356Y-108811132D01*
X135675592Y-108808868D01*
X135675461Y-108807035D01*
X135671210Y-108800420D01*
X135037458Y-108166668D01*
X135025078Y-108159908D01*
X135019112Y-108164374D01*
X134925573Y-108342163D01*
X134921174Y-108352786D01*
X134890594Y-108451269D01*
X134851291Y-108510394D01*
X134786261Y-108538885D01*
X134716152Y-108527695D01*
X134663222Y-108480378D01*
X134648992Y-108448108D01*
X134630413Y-108382233D01*
X134626292Y-108371497D01*
X134533534Y-108183403D01*
X134527517Y-108173583D01*
X134524723Y-108169842D01*
X134513464Y-108161392D01*
X134501046Y-108168164D01*
X133872022Y-108797188D01*
X133864408Y-108811132D01*
X133134356Y-108811132D01*
X133135592Y-108808868D01*
X133135461Y-108807035D01*
X133131210Y-108800420D01*
X132497458Y-108166668D01*
X132485078Y-108159908D01*
X132479112Y-108164374D01*
X132385573Y-108342163D01*
X132381170Y-108352796D01*
X132318977Y-108553087D01*
X132316587Y-108564331D01*
X132291935Y-108772613D01*
X132291634Y-108784114D01*
X129704000Y-108784114D01*
X129704000Y-106238335D01*
X132290755Y-106238335D01*
X132305233Y-106459233D01*
X132359724Y-106673793D01*
X132452404Y-106874830D01*
X132580167Y-107055611D01*
X132738736Y-107210082D01*
X132743534Y-107213288D01*
X132808992Y-107257026D01*
X132922800Y-107333070D01*
X132928103Y-107335348D01*
X132928106Y-107335350D01*
X133008514Y-107369896D01*
X133126195Y-107420455D01*
X133131827Y-107421729D01*
X133133143Y-107422157D01*
X133191750Y-107462228D01*
X133219389Y-107527624D01*
X133207285Y-107597581D01*
X133159281Y-107649889D01*
X133137822Y-107660203D01*
X132984860Y-107716634D01*
X132974482Y-107721584D01*
X132862343Y-107788300D01*
X132852745Y-107798633D01*
X132856231Y-107807021D01*
X133487188Y-108437978D01*
X133501132Y-108445592D01*
X133502965Y-108445461D01*
X133509580Y-108441210D01*
X134139885Y-107810905D01*
X134146645Y-107798525D01*
X134140615Y-107790470D01*
X134053830Y-107735713D01*
X134043582Y-107730492D01*
X133855780Y-107655567D01*
X133799921Y-107611746D01*
X133776620Y-107544682D01*
X133793276Y-107475667D01*
X133844600Y-107426613D01*
X133861968Y-107419224D01*
X133986545Y-107376935D01*
X133992013Y-107375079D01*
X134185159Y-107266912D01*
X134355359Y-107125359D01*
X134496912Y-106955159D01*
X134586766Y-106794714D01*
X134602256Y-106767054D01*
X134602256Y-106767053D01*
X134605079Y-106762013D01*
X134649711Y-106630533D01*
X134690548Y-106572457D01*
X134756301Y-106545679D01*
X134826094Y-106558700D01*
X134877767Y-106607387D01*
X134891147Y-106640021D01*
X134893530Y-106649402D01*
X134899724Y-106673793D01*
X134992404Y-106874830D01*
X135120167Y-107055611D01*
X135278736Y-107210082D01*
X135283534Y-107213288D01*
X135348992Y-107257026D01*
X135462800Y-107333070D01*
X135468103Y-107335348D01*
X135468106Y-107335350D01*
X135548514Y-107369896D01*
X135666195Y-107420455D01*
X135671827Y-107421729D01*
X135673143Y-107422157D01*
X135731750Y-107462228D01*
X135759389Y-107527624D01*
X135747285Y-107597581D01*
X135699281Y-107649889D01*
X135677822Y-107660203D01*
X135524860Y-107716634D01*
X135514482Y-107721584D01*
X135402343Y-107788300D01*
X135392745Y-107798633D01*
X135396231Y-107807021D01*
X136027188Y-108437978D01*
X136041132Y-108445592D01*
X136042965Y-108445461D01*
X136049580Y-108441210D01*
X136679885Y-107810905D01*
X136686645Y-107798525D01*
X136680615Y-107790470D01*
X136593830Y-107735713D01*
X136583582Y-107730492D01*
X136395780Y-107655567D01*
X136339921Y-107611746D01*
X136316620Y-107544682D01*
X136333276Y-107475667D01*
X136384600Y-107426613D01*
X136401968Y-107419224D01*
X136526545Y-107376935D01*
X136532013Y-107375079D01*
X136725159Y-107266912D01*
X136895359Y-107125359D01*
X137036912Y-106955159D01*
X137126766Y-106794714D01*
X137142256Y-106767054D01*
X137142256Y-106767053D01*
X137145079Y-106762013D01*
X137216237Y-106552390D01*
X137248002Y-106333309D01*
X137249660Y-106270000D01*
X137229404Y-106049557D01*
X137220645Y-106018498D01*
X137170884Y-105842061D01*
X137169315Y-105836497D01*
X137071405Y-105637954D01*
X136938953Y-105460579D01*
X136934717Y-105456663D01*
X136780634Y-105314231D01*
X136780632Y-105314229D01*
X136776394Y-105310312D01*
X136589174Y-105192185D01*
X136549060Y-105176181D01*
X136396509Y-105115319D01*
X136340649Y-105071498D01*
X136317349Y-105004434D01*
X136334005Y-104935419D01*
X136385329Y-104886364D01*
X136402698Y-104878976D01*
X136526542Y-104836937D01*
X136526550Y-104836934D01*
X136532013Y-104835079D01*
X136725159Y-104726912D01*
X136895359Y-104585359D01*
X137036912Y-104415159D01*
X137145079Y-104222013D01*
X137216237Y-104012390D01*
X137248002Y-103793309D01*
X137249660Y-103730000D01*
X137229404Y-103509557D01*
X137220645Y-103478498D01*
X137195749Y-103390225D01*
X137169315Y-103296497D01*
X137080559Y-103116516D01*
X137073960Y-103103135D01*
X137071405Y-103097954D01*
X137041454Y-103057844D01*
X136942406Y-102925203D01*
X136942405Y-102925202D01*
X136938953Y-102920579D01*
X136934717Y-102916663D01*
X136780634Y-102774231D01*
X136780632Y-102774229D01*
X136776394Y-102770312D01*
X136589174Y-102652185D01*
X136549060Y-102636181D01*
X136396509Y-102575319D01*
X136340649Y-102531498D01*
X136317349Y-102464434D01*
X136334005Y-102395419D01*
X136385329Y-102346364D01*
X136402698Y-102338976D01*
X136526542Y-102296937D01*
X136526550Y-102296934D01*
X136532013Y-102295079D01*
X136725159Y-102186912D01*
X136895359Y-102045359D01*
X137036912Y-101875159D01*
X137145079Y-101682013D01*
X137198346Y-101525096D01*
X137214379Y-101477864D01*
X137214379Y-101477862D01*
X137216237Y-101472390D01*
X137217627Y-101462807D01*
X137241419Y-101298711D01*
X137248002Y-101253309D01*
X137249660Y-101190000D01*
X137229404Y-100969557D01*
X137220645Y-100938498D01*
X137170884Y-100762061D01*
X137169315Y-100756497D01*
X137071405Y-100557954D01*
X137067147Y-100552251D01*
X136942406Y-100385203D01*
X136942405Y-100385202D01*
X136938953Y-100380579D01*
X136934717Y-100376663D01*
X136780634Y-100234231D01*
X136780632Y-100234229D01*
X136776394Y-100230312D01*
X136589174Y-100112185D01*
X136552437Y-100097529D01*
X136496579Y-100053708D01*
X136473279Y-99986643D01*
X136489935Y-99917628D01*
X136541260Y-99868574D01*
X136599128Y-99854499D01*
X137065066Y-99854499D01*
X137102588Y-99847036D01*
X137127126Y-99842156D01*
X137127128Y-99842155D01*
X137139301Y-99839734D01*
X137149621Y-99832839D01*
X137149622Y-99832838D01*
X137213168Y-99790377D01*
X137223484Y-99783484D01*
X137279734Y-99699301D01*
X137294500Y-99625067D01*
X137294499Y-97674934D01*
X137279734Y-97600699D01*
X137263177Y-97575919D01*
X137230377Y-97526832D01*
X137223484Y-97516516D01*
X137139301Y-97460266D01*
X137065067Y-97445500D01*
X136040166Y-97445500D01*
X135014934Y-97445501D01*
X134979182Y-97452612D01*
X134952874Y-97457844D01*
X134952872Y-97457845D01*
X134940699Y-97460266D01*
X134930379Y-97467161D01*
X134930378Y-97467162D01*
X134895969Y-97490154D01*
X134856516Y-97516516D01*
X134800266Y-97600699D01*
X134785500Y-97674933D01*
X134785500Y-97992824D01*
X134765498Y-98060945D01*
X134711842Y-98107438D01*
X134641568Y-98117542D01*
X134576988Y-98088048D01*
X134546494Y-98048552D01*
X134533960Y-98023134D01*
X134533957Y-98023130D01*
X134531405Y-98017954D01*
X134403649Y-97846867D01*
X134402406Y-97845203D01*
X134402405Y-97845202D01*
X134398953Y-97840579D01*
X134394717Y-97836663D01*
X134240634Y-97694231D01*
X134240632Y-97694229D01*
X134236394Y-97690312D01*
X134049174Y-97572185D01*
X133843562Y-97490154D01*
X133837905Y-97489029D01*
X133837899Y-97489027D01*
X133632111Y-97448094D01*
X133632109Y-97448094D01*
X133626444Y-97446967D01*
X133620669Y-97446891D01*
X133620665Y-97446891D01*
X133509341Y-97445434D01*
X133405091Y-97444069D01*
X133399394Y-97445048D01*
X133399393Y-97445048D01*
X133270697Y-97467162D01*
X133186917Y-97481558D01*
X132979228Y-97558179D01*
X132974267Y-97561131D01*
X132974266Y-97561131D01*
X132887298Y-97612872D01*
X132788980Y-97671365D01*
X132622544Y-97817325D01*
X132618977Y-97821850D01*
X132618972Y-97821855D01*
X132524735Y-97941395D01*
X132485494Y-97991172D01*
X132482805Y-97996283D01*
X132482803Y-97996286D01*
X132434525Y-98088048D01*
X132382420Y-98187083D01*
X132316774Y-98398498D01*
X132290755Y-98618335D01*
X132305233Y-98839233D01*
X132359724Y-99053793D01*
X132452404Y-99254830D01*
X132580167Y-99435611D01*
X132738736Y-99590082D01*
X132743532Y-99593287D01*
X132743535Y-99593289D01*
X132870651Y-99678225D01*
X132922800Y-99713070D01*
X132928103Y-99715348D01*
X132928106Y-99715350D01*
X133120892Y-99798177D01*
X133120895Y-99798178D01*
X133126195Y-99800455D01*
X133131824Y-99801729D01*
X133132379Y-99801909D01*
X133190984Y-99841982D01*
X133218622Y-99907379D01*
X133206515Y-99977335D01*
X133158510Y-100029642D01*
X133137058Y-100039952D01*
X132979228Y-100098179D01*
X132974267Y-100101131D01*
X132974266Y-100101131D01*
X132804313Y-100202243D01*
X132788980Y-100211365D01*
X132622544Y-100357325D01*
X132618977Y-100361850D01*
X132618972Y-100361855D01*
X132576195Y-100416118D01*
X132485494Y-100531172D01*
X132482805Y-100536283D01*
X132482803Y-100536286D01*
X132471403Y-100557954D01*
X132382420Y-100727083D01*
X132316774Y-100938498D01*
X132316095Y-100944233D01*
X132316095Y-100944234D01*
X132313098Y-100969557D01*
X132290755Y-101158335D01*
X132305233Y-101379233D01*
X132359724Y-101593793D01*
X132452404Y-101794830D01*
X132580167Y-101975611D01*
X132738736Y-102130082D01*
X132743532Y-102133287D01*
X132743535Y-102133289D01*
X132818253Y-102183214D01*
X132922800Y-102253070D01*
X132928103Y-102255348D01*
X132928106Y-102255350D01*
X133120892Y-102338177D01*
X133120895Y-102338178D01*
X133126195Y-102340455D01*
X133131824Y-102341729D01*
X133132379Y-102341909D01*
X133190984Y-102381982D01*
X133218622Y-102447379D01*
X133206515Y-102517335D01*
X133158510Y-102569642D01*
X133137058Y-102579952D01*
X132979228Y-102638179D01*
X132788980Y-102751365D01*
X132622544Y-102897325D01*
X132618977Y-102901850D01*
X132618972Y-102901855D01*
X132524735Y-103021395D01*
X132485494Y-103071172D01*
X132482805Y-103076283D01*
X132482803Y-103076286D01*
X132471403Y-103097954D01*
X132382420Y-103267083D01*
X132316774Y-103478498D01*
X132316095Y-103484233D01*
X132316095Y-103484234D01*
X132313098Y-103509557D01*
X132290755Y-103698335D01*
X132305233Y-103919233D01*
X132359724Y-104133793D01*
X132452404Y-104334830D01*
X132580167Y-104515611D01*
X132738736Y-104670082D01*
X132743532Y-104673287D01*
X132743535Y-104673289D01*
X132818253Y-104723214D01*
X132922800Y-104793070D01*
X132928103Y-104795348D01*
X132928106Y-104795350D01*
X133120892Y-104878177D01*
X133120895Y-104878178D01*
X133126195Y-104880455D01*
X133131824Y-104881729D01*
X133132379Y-104881909D01*
X133190984Y-104921982D01*
X133218622Y-104987379D01*
X133206515Y-105057335D01*
X133158510Y-105109642D01*
X133137058Y-105119952D01*
X132979228Y-105178179D01*
X132788980Y-105291365D01*
X132622544Y-105437325D01*
X132618977Y-105441850D01*
X132618972Y-105441855D01*
X132524735Y-105561395D01*
X132485494Y-105611172D01*
X132482805Y-105616283D01*
X132482803Y-105616286D01*
X132471403Y-105637954D01*
X132382420Y-105807083D01*
X132316774Y-106018498D01*
X132316095Y-106024233D01*
X132316095Y-106024234D01*
X132313098Y-106049557D01*
X132290755Y-106238335D01*
X129704000Y-106238335D01*
X129704000Y-95220000D01*
X129724002Y-95151879D01*
X129777658Y-95105386D01*
X129830000Y-95094000D01*
X167170000Y-95094000D01*
X167238121Y-95114002D01*
G37*
%TD.AperFunction*%
%TD*%
M02*
