M48
; DRILL file {KiCad 6.0.0} date sam. 24 sept. 2022 12:18:39
; FORMAT={-:-/ absolute / inch / decimal}
; #@! TF.CreationDate,2022-09-24T12:18:39+02:00
; #@! TF.GenerationSoftware,Kicad,Pcbnew,6.0.0
; #@! TF.FileFunction,Plated,1,2,PTH
FMAT,2
INCH
; #@! TA.AperFunction,Plated,PTH,ViaDrill
T1C0.0120
; #@! TA.AperFunction,Plated,PTH,ComponentDrill
T2C0.0433
; #@! TA.AperFunction,Plated,PTH,ComponentDrill
T3C0.0469
%
G90
G05
T1
X5.128Y-3.7795
X5.128Y-3.9449
X5.128Y-4.1339
X5.128Y-4.3228
X5.128Y-4.4882
X5.315Y-3.7559
X5.4921Y-3.7559
X5.4921Y-4.5118
X5.6102Y-4.0945
X5.6398Y-3.8976
X5.6398Y-3.9469
X5.6693Y-3.7559
X5.6693Y-4.5118
X5.7819Y-4.3346
X5.8323Y-3.9331
X5.8465Y-3.7559
X5.8465Y-4.5118
X5.8819Y-4.3346
X5.8823Y-3.8976
X6.0236Y-3.7559
X6.0236Y-4.5118
X6.0512Y-3.8976
X6.1953Y-4.3327
X6.2008Y-3.7559
X6.2008Y-4.5118
X6.2453Y-3.9331
X6.2953Y-3.8976
X6.378Y-3.7559
X6.378Y-4.5118
X6.5748Y-3.7559
X6.5748Y-3.9449
X6.5748Y-4.1339
X6.5748Y-4.3228
X6.5748Y-4.5118
T2
X5.3559Y-3.8839
T3
X5.2559Y-3.8839
X5.2559Y-3.9839
X5.2559Y-4.0839
X5.2559Y-4.1839
X5.2559Y-4.2839
X5.2559Y-4.3839
X5.3559Y-3.9839
X5.3559Y-4.0839
X5.3559Y-4.1839
X5.3559Y-4.2839
X5.3559Y-4.3839
T0
M30
