%TF.GenerationSoftware,KiCad,Pcbnew,6.0.0*%
%TF.CreationDate,2022-09-24T12:18:35+02:00*%
%TF.ProjectId,pmod-flash,706d6f64-2d66-46c6-9173-682e6b696361,1*%
%TF.SameCoordinates,Original*%
%TF.FileFunction,Copper,L2,Bot*%
%TF.FilePolarity,Positive*%
%FSLAX46Y46*%
G04 Gerber Fmt 4.6, Leading zero omitted, Abs format (unit mm)*
G04 Created by KiCad (PCBNEW 6.0.0) date 2022-09-24 12:18:35*
%MOMM*%
%LPD*%
G01*
G04 APERTURE LIST*
%TA.AperFunction,ComponentPad*%
%ADD10R,2.000000X1.900000*%
%TD*%
%TA.AperFunction,ComponentPad*%
%ADD11C,1.900000*%
%TD*%
%TA.AperFunction,ViaPad*%
%ADD12C,0.711200*%
%TD*%
%TA.AperFunction,Conductor*%
%ADD13C,0.203200*%
%TD*%
%TA.AperFunction,Conductor*%
%ADD14C,0.406400*%
%TD*%
G04 APERTURE END LIST*
D10*
%TO.P,P1,1,IO1*%
%TO.N,PMOD_CS*%
X136040000Y-98650000D03*
D11*
%TO.P,P1,2,IO2*%
%TO.N,PMOD_MOSI*%
X136040000Y-101190000D03*
%TO.P,P1,3,IO3*%
%TO.N,PMOD_MISO*%
X136040000Y-103730000D03*
%TO.P,P1,4,IO4*%
%TO.N,PMOD_SCK*%
X136040000Y-106270000D03*
%TO.P,P1,5*%
%TO.N,GND*%
X136040000Y-108810000D03*
%TO.P,P1,6*%
%TO.N,+VPMOD*%
X136040000Y-111350000D03*
%TO.P,P1,7,IO5*%
%TO.N,unconnected-(P1-Pad7)*%
X133500000Y-98650000D03*
%TO.P,P1,8,IO6*%
%TO.N,unconnected-(P1-Pad8)*%
X133500000Y-101190000D03*
%TO.P,P1,9,IO7*%
%TO.N,PMOD_CS2*%
X133500000Y-103730000D03*
%TO.P,P1,10,IO8*%
%TO.N,unconnected-(P1-Pad10)*%
X133500000Y-106270000D03*
%TO.P,P1,11*%
%TO.N,GND*%
X133500000Y-108810000D03*
%TO.P,P1,12*%
%TO.N,+VPMOD*%
X133500000Y-111350000D03*
%TD*%
D12*
%TO.N,PMOD_CS*%
X143250000Y-100250000D03*
%TO.N,PMOD_MOSI*%
X149410000Y-99000000D03*
X159900000Y-99000000D03*
%TO.N,PMOD_MISO*%
X146860000Y-110100000D03*
X157360000Y-110050000D03*
%TO.N,PMOD_SCK*%
X148140000Y-99900000D03*
X158630000Y-99900000D03*
%TO.N,GND*%
X130250000Y-114000000D03*
X157500000Y-95400000D03*
X144000000Y-95400000D03*
X130250000Y-96000000D03*
X167000000Y-109800000D03*
X135000000Y-95400000D03*
X167000000Y-100200000D03*
X148500000Y-114600000D03*
X167000000Y-114600000D03*
X167000000Y-105000000D03*
X162000000Y-95400000D03*
X144000000Y-114600000D03*
X130250000Y-105000000D03*
X149400000Y-110100000D03*
X139500000Y-95400000D03*
X162000000Y-114600000D03*
X153000000Y-114600000D03*
X130250000Y-109800000D03*
X153700000Y-99000000D03*
X130250000Y-100200000D03*
X153000000Y-95400000D03*
X157500000Y-114600000D03*
X167000000Y-95400000D03*
X139500000Y-114600000D03*
X143250000Y-99000000D03*
X148500000Y-95400000D03*
%TO.N,PMOD_CS2*%
X142500000Y-104000000D03*
%TD*%
D13*
%TO.N,PMOD_CS*%
X136040000Y-98650000D02*
X141650000Y-98650000D01*
X141650000Y-98650000D02*
X143250000Y-100250000D01*
%TO.N,PMOD_MOSI*%
X141650000Y-101190000D02*
X143740000Y-101190000D01*
X149410000Y-99000000D02*
X150640000Y-97770000D01*
X150640000Y-97770000D02*
X158670000Y-97770000D01*
X140900000Y-102171707D02*
X140900000Y-101940000D01*
X145930000Y-99000000D02*
X149410000Y-99000000D01*
X139400000Y-101940000D02*
X139400000Y-102171707D01*
X136040000Y-101190000D02*
X138650000Y-101190000D01*
X143740000Y-101190000D02*
X145930000Y-99000000D01*
X158670000Y-97770000D02*
X159900000Y-99000000D01*
X139400000Y-101940000D02*
G75*
G03*
X138650000Y-101190000I-750000J0D01*
G01*
X141650000Y-101190000D02*
G75*
G03*
X140900000Y-101940000I0J-750000D01*
G01*
X140150000Y-102921707D02*
G75*
G02*
X139400000Y-102171707I0J750000D01*
G01*
X140900000Y-102171707D02*
G75*
G02*
X140150000Y-102921707I-750000J0D01*
G01*
%TO.N,PMOD_MISO*%
X156120000Y-108810000D02*
X157360000Y-110050000D01*
X136040000Y-103730000D02*
X134770000Y-105000000D01*
X141770000Y-107540000D02*
X144710000Y-110480000D01*
X135520000Y-107540000D02*
X141770000Y-107540000D01*
X144710000Y-110480000D02*
X145760000Y-110480000D01*
X145760000Y-110480000D02*
X146140000Y-110100000D01*
X149360000Y-108810000D02*
X156120000Y-108810000D01*
X148070000Y-110100000D02*
X149360000Y-108810000D01*
X134770000Y-106790000D02*
X135520000Y-107540000D01*
X146140000Y-110100000D02*
X148070000Y-110100000D01*
X134770000Y-105000000D02*
X134770000Y-106790000D01*
%TO.N,PMOD_SCK*%
X154000000Y-100348363D02*
X154000000Y-100300000D01*
X144768418Y-104605626D02*
X144768419Y-104605626D01*
X145374191Y-102665811D02*
X145374193Y-102665810D01*
X144768419Y-103969228D02*
X144768419Y-103969229D01*
X144707168Y-102635184D02*
X144737795Y-102665811D01*
X148140000Y-99900000D02*
X152800000Y-99900000D01*
X144707170Y-102635183D02*
X144707168Y-102635184D01*
X141770000Y-106270000D02*
X143465000Y-104575000D01*
X145374193Y-102665810D02*
X145660632Y-102379368D01*
X136040000Y-106270000D02*
X141770000Y-106270000D01*
X144768419Y-103969229D02*
X144070771Y-103271581D01*
X144070770Y-102635184D02*
X144070772Y-102635183D01*
X154450000Y-99900000D02*
X158630000Y-99900000D01*
X144101396Y-104575000D02*
X144132022Y-104605626D01*
X145660632Y-102379368D02*
X148140000Y-99900000D01*
X153200000Y-100300000D02*
X153200000Y-100348363D01*
X154400000Y-99900000D02*
X154450000Y-99900000D01*
X144707169Y-102635184D02*
G75*
G03*
X144070773Y-102635184I-318198J-318203D01*
G01*
X144768419Y-103969228D02*
G75*
G02*
X144768419Y-104605626I-318200J-318199D01*
G01*
X144070770Y-102635184D02*
G75*
G03*
X144070771Y-103271581I318201J-318198D01*
G01*
X145374190Y-102665810D02*
G75*
G02*
X144737796Y-102665810I-318197J318197D01*
G01*
X154000000Y-100348363D02*
G75*
G02*
X153600000Y-100748363I-399999J-1D01*
G01*
X144101395Y-104575001D02*
G75*
G03*
X143465001Y-104575001I-318197J-318197D01*
G01*
X144768417Y-104605625D02*
G75*
G02*
X144132023Y-104605625I-318197J318197D01*
G01*
X153200000Y-100300000D02*
G75*
G03*
X152800000Y-99900000I-399999J1D01*
G01*
X154400000Y-99900000D02*
G75*
G03*
X154000000Y-100300000I-1J-399999D01*
G01*
X153600000Y-100748363D02*
G75*
G02*
X153200000Y-100348363I-1J399999D01*
G01*
D14*
%TO.N,GND*%
X167000000Y-105000000D02*
X167000000Y-95400000D01*
X130250000Y-109800000D02*
X130250000Y-114000000D01*
X167000000Y-114600000D02*
X148500000Y-114600000D01*
X167000000Y-105000000D02*
X167000000Y-109800000D01*
X130250000Y-96000000D02*
X130250000Y-100200000D01*
X130250000Y-105000000D02*
X130250000Y-106620000D01*
X130940000Y-107310000D02*
X132000000Y-107310000D01*
X130250000Y-109800000D02*
X132510000Y-109800000D01*
X130250000Y-106620000D02*
X130940000Y-107310000D01*
X130850000Y-95400000D02*
X130250000Y-96000000D01*
X132510000Y-109800000D02*
X133500000Y-108810000D01*
X132000000Y-107310000D02*
X133500000Y-108810000D01*
X133500000Y-108810000D02*
X134770000Y-110080000D01*
X148500000Y-114600000D02*
X130850000Y-114600000D01*
X167000000Y-95400000D02*
X148500000Y-95400000D01*
X130250000Y-108000000D02*
X130940000Y-107310000D01*
X148500000Y-111000000D02*
X149400000Y-110100000D01*
X130850000Y-114600000D02*
X130250000Y-114000000D01*
X130250000Y-109800000D02*
X130250000Y-108000000D01*
X148500000Y-114600000D02*
X148500000Y-111000000D01*
X130250000Y-100200000D02*
X130250000Y-105000000D01*
X136040000Y-108810000D02*
X134770000Y-110080000D01*
X148500000Y-95400000D02*
X130850000Y-95400000D01*
X167000000Y-109800000D02*
X167000000Y-114600000D01*
D13*
%TO.N,PMOD_CS2*%
X134770000Y-102460000D02*
X137530000Y-102460000D01*
X137530000Y-102460000D02*
X139070000Y-104000000D01*
X139070000Y-104000000D02*
X142500000Y-104000000D01*
X133500000Y-103730000D02*
X134770000Y-102460000D01*
%TD*%
%TA.AperFunction,Conductor*%
%TO.N,GND*%
G36*
X167238121Y-95114002D02*
G01*
X167284614Y-95167658D01*
X167296000Y-95220000D01*
X167296000Y-114780000D01*
X167275998Y-114848121D01*
X167222342Y-114894614D01*
X167170000Y-114906000D01*
X129830000Y-114906000D01*
X129761879Y-114885998D01*
X129715386Y-114832342D01*
X129704000Y-114780000D01*
X129704000Y-111318335D01*
X132290755Y-111318335D01*
X132305233Y-111539233D01*
X132359724Y-111753793D01*
X132452404Y-111954830D01*
X132580167Y-112135611D01*
X132738736Y-112290082D01*
X132743532Y-112293287D01*
X132743535Y-112293289D01*
X132818253Y-112343214D01*
X132922800Y-112413070D01*
X132928103Y-112415348D01*
X132928106Y-112415350D01*
X133014008Y-112452256D01*
X133126195Y-112500455D01*
X133205673Y-112518439D01*
X133336471Y-112548036D01*
X133336476Y-112548037D01*
X133342108Y-112549311D01*
X133347879Y-112549538D01*
X133347881Y-112549538D01*
X133415501Y-112552195D01*
X133563309Y-112558002D01*
X133691908Y-112539356D01*
X133776668Y-112527067D01*
X133776672Y-112527066D01*
X133782390Y-112526237D01*
X133787862Y-112524379D01*
X133787864Y-112524379D01*
X133986545Y-112456935D01*
X133992013Y-112455079D01*
X134185159Y-112346912D01*
X134355359Y-112205359D01*
X134496912Y-112035159D01*
X134605079Y-111842013D01*
X134649711Y-111710533D01*
X134690548Y-111652457D01*
X134756301Y-111625679D01*
X134826094Y-111638700D01*
X134877767Y-111687387D01*
X134891147Y-111720021D01*
X134899724Y-111753793D01*
X134992404Y-111954830D01*
X135120167Y-112135611D01*
X135278736Y-112290082D01*
X135283532Y-112293287D01*
X135283535Y-112293289D01*
X135358253Y-112343214D01*
X135462800Y-112413070D01*
X135468103Y-112415348D01*
X135468106Y-112415350D01*
X135554008Y-112452256D01*
X135666195Y-112500455D01*
X135745673Y-112518439D01*
X135876471Y-112548036D01*
X135876476Y-112548037D01*
X135882108Y-112549311D01*
X135887879Y-112549538D01*
X135887881Y-112549538D01*
X135955501Y-112552195D01*
X136103309Y-112558002D01*
X136231908Y-112539356D01*
X136316668Y-112527067D01*
X136316672Y-112527066D01*
X136322390Y-112526237D01*
X136327862Y-112524379D01*
X136327864Y-112524379D01*
X136526545Y-112456935D01*
X136532013Y-112455079D01*
X136725159Y-112346912D01*
X136895359Y-112205359D01*
X137036912Y-112035159D01*
X137145079Y-111842013D01*
X137216237Y-111632390D01*
X137248002Y-111413309D01*
X137249660Y-111350000D01*
X137229404Y-111129557D01*
X137220645Y-111098498D01*
X137170884Y-110922061D01*
X137169315Y-110916497D01*
X137071405Y-110717954D01*
X137041755Y-110678247D01*
X136942406Y-110545203D01*
X136942405Y-110545202D01*
X136938953Y-110540579D01*
X136934717Y-110536663D01*
X136780634Y-110394231D01*
X136780632Y-110394229D01*
X136776394Y-110390312D01*
X136589174Y-110272185D01*
X136395794Y-110195034D01*
X136339934Y-110151213D01*
X136316634Y-110084149D01*
X136333290Y-110015134D01*
X136384614Y-109966079D01*
X136401983Y-109958691D01*
X136526341Y-109916477D01*
X136536844Y-109911801D01*
X136678568Y-109832433D01*
X136688431Y-109822356D01*
X136685476Y-109814686D01*
X136052812Y-109182022D01*
X136038868Y-109174408D01*
X136037035Y-109174539D01*
X136030420Y-109178790D01*
X135400045Y-109809165D01*
X135393849Y-109820512D01*
X135403729Y-109832999D01*
X135458239Y-109869421D01*
X135468344Y-109874908D01*
X135661049Y-109957700D01*
X135673135Y-109961627D01*
X135731742Y-110001698D01*
X135759381Y-110067094D01*
X135747277Y-110137051D01*
X135699273Y-110189359D01*
X135677814Y-110199673D01*
X135574410Y-110237821D01*
X135519228Y-110258179D01*
X135514267Y-110261131D01*
X135514266Y-110261131D01*
X135361108Y-110352251D01*
X135328980Y-110371365D01*
X135162544Y-110517325D01*
X135158977Y-110521850D01*
X135158972Y-110521855D01*
X135085299Y-110615310D01*
X135025494Y-110691172D01*
X135022805Y-110696283D01*
X135022803Y-110696286D01*
X134984700Y-110768708D01*
X134922420Y-110887083D01*
X134920707Y-110892601D01*
X134920703Y-110892611D01*
X134890615Y-110989508D01*
X134851312Y-111048634D01*
X134786283Y-111077124D01*
X134716174Y-111065934D01*
X134663244Y-111018617D01*
X134649014Y-110986345D01*
X134630884Y-110922061D01*
X134629315Y-110916497D01*
X134531405Y-110717954D01*
X134501755Y-110678247D01*
X134402406Y-110545203D01*
X134402405Y-110545202D01*
X134398953Y-110540579D01*
X134394717Y-110536663D01*
X134240634Y-110394231D01*
X134240632Y-110394229D01*
X134236394Y-110390312D01*
X134049174Y-110272185D01*
X133855794Y-110195034D01*
X133799934Y-110151213D01*
X133776634Y-110084149D01*
X133793290Y-110015134D01*
X133844614Y-109966079D01*
X133861983Y-109958691D01*
X133986341Y-109916477D01*
X133996844Y-109911801D01*
X134138568Y-109832433D01*
X134148431Y-109822356D01*
X134145476Y-109814686D01*
X133512812Y-109182022D01*
X133498868Y-109174408D01*
X133497035Y-109174539D01*
X133490420Y-109178790D01*
X132860045Y-109809165D01*
X132853849Y-109820512D01*
X132863729Y-109832999D01*
X132918239Y-109869421D01*
X132928344Y-109874908D01*
X133121049Y-109957700D01*
X133133135Y-109961627D01*
X133191742Y-110001698D01*
X133219381Y-110067094D01*
X133207277Y-110137051D01*
X133159273Y-110189359D01*
X133137814Y-110199673D01*
X133034410Y-110237821D01*
X132979228Y-110258179D01*
X132974267Y-110261131D01*
X132974266Y-110261131D01*
X132821108Y-110352251D01*
X132788980Y-110371365D01*
X132622544Y-110517325D01*
X132618977Y-110521850D01*
X132618972Y-110521855D01*
X132545299Y-110615310D01*
X132485494Y-110691172D01*
X132482805Y-110696283D01*
X132482803Y-110696286D01*
X132444700Y-110768708D01*
X132382420Y-110887083D01*
X132316774Y-111098498D01*
X132316095Y-111104233D01*
X132316095Y-111104234D01*
X132313098Y-111129557D01*
X132290755Y-111318335D01*
X129704000Y-111318335D01*
X129704000Y-108784114D01*
X132291634Y-108784114D01*
X132305351Y-108993386D01*
X132307152Y-109004756D01*
X132358775Y-109208025D01*
X132362616Y-109218872D01*
X132450418Y-109409331D01*
X132456172Y-109419297D01*
X132476906Y-109448634D01*
X132487495Y-109457022D01*
X132500796Y-109449994D01*
X133127978Y-108822812D01*
X133134356Y-108811132D01*
X133864408Y-108811132D01*
X133864539Y-108812965D01*
X133868790Y-108819580D01*
X134500770Y-109451560D01*
X134513150Y-109458320D01*
X134519730Y-109453394D01*
X134601801Y-109306844D01*
X134606477Y-109296341D01*
X134649780Y-109168775D01*
X134690617Y-109110698D01*
X134756370Y-109083920D01*
X134826162Y-109096941D01*
X134877835Y-109145628D01*
X134891216Y-109178262D01*
X134898774Y-109208023D01*
X134902616Y-109218872D01*
X134990418Y-109409331D01*
X134996172Y-109419297D01*
X135016906Y-109448634D01*
X135027495Y-109457022D01*
X135040796Y-109449994D01*
X135667978Y-108822812D01*
X135675592Y-108808868D01*
X135675461Y-108807035D01*
X135671210Y-108800420D01*
X135037458Y-108166668D01*
X135025078Y-108159908D01*
X135019112Y-108164374D01*
X134925573Y-108342163D01*
X134921174Y-108352786D01*
X134890594Y-108451269D01*
X134851291Y-108510394D01*
X134786261Y-108538885D01*
X134716152Y-108527695D01*
X134663222Y-108480378D01*
X134648992Y-108448108D01*
X134630413Y-108382233D01*
X134626292Y-108371497D01*
X134533534Y-108183403D01*
X134527517Y-108173583D01*
X134524723Y-108169842D01*
X134513464Y-108161392D01*
X134501046Y-108168164D01*
X133872022Y-108797188D01*
X133864408Y-108811132D01*
X133134356Y-108811132D01*
X133135592Y-108808868D01*
X133135461Y-108807035D01*
X133131210Y-108800420D01*
X132497458Y-108166668D01*
X132485078Y-108159908D01*
X132479112Y-108164374D01*
X132385573Y-108342163D01*
X132381170Y-108352796D01*
X132318977Y-108553087D01*
X132316587Y-108564331D01*
X132291935Y-108772613D01*
X132291634Y-108784114D01*
X129704000Y-108784114D01*
X129704000Y-106238335D01*
X132290755Y-106238335D01*
X132305233Y-106459233D01*
X132359724Y-106673793D01*
X132452404Y-106874830D01*
X132580167Y-107055611D01*
X132738736Y-107210082D01*
X132743532Y-107213287D01*
X132743535Y-107213289D01*
X132886590Y-107308875D01*
X132922800Y-107333070D01*
X132928103Y-107335348D01*
X132928106Y-107335350D01*
X133008514Y-107369896D01*
X133126195Y-107420455D01*
X133131827Y-107421729D01*
X133133143Y-107422157D01*
X133191750Y-107462228D01*
X133219389Y-107527624D01*
X133207285Y-107597581D01*
X133159281Y-107649889D01*
X133137822Y-107660203D01*
X132984860Y-107716634D01*
X132974482Y-107721584D01*
X132862343Y-107788300D01*
X132852745Y-107798633D01*
X132856231Y-107807021D01*
X133487188Y-108437978D01*
X133501132Y-108445592D01*
X133502965Y-108445461D01*
X133509580Y-108441210D01*
X134139885Y-107810905D01*
X134146645Y-107798525D01*
X134140615Y-107790470D01*
X134053830Y-107735713D01*
X134043582Y-107730492D01*
X133855780Y-107655567D01*
X133799921Y-107611746D01*
X133776620Y-107544682D01*
X133793276Y-107475667D01*
X133844600Y-107426613D01*
X133861968Y-107419224D01*
X133986545Y-107376935D01*
X133992013Y-107375079D01*
X134185159Y-107266912D01*
X134355359Y-107125359D01*
X134378927Y-107097022D01*
X134437862Y-107057438D01*
X134508844Y-107056001D01*
X134564895Y-107088496D01*
X135231832Y-107755433D01*
X135244504Y-107771122D01*
X135247324Y-107774222D01*
X135252975Y-107782974D01*
X135261153Y-107789421D01*
X135261154Y-107789422D01*
X135277367Y-107802203D01*
X135281397Y-107805784D01*
X135281480Y-107805686D01*
X135285437Y-107809039D01*
X135289118Y-107812720D01*
X135293350Y-107815744D01*
X135293352Y-107815746D01*
X135303711Y-107823149D01*
X135308456Y-107826712D01*
X135337895Y-107849920D01*
X135337897Y-107849921D01*
X135346075Y-107856368D01*
X135354180Y-107859214D01*
X135361171Y-107864210D01*
X135396462Y-107874764D01*
X135407071Y-107877937D01*
X135412715Y-107879771D01*
X135450451Y-107893023D01*
X135450459Y-107893025D01*
X135457584Y-107895527D01*
X135457586Y-107895528D01*
X135457928Y-107895648D01*
X135457908Y-107895704D01*
X135517217Y-107928007D01*
X137040770Y-109451560D01*
X137053150Y-109458320D01*
X137059730Y-109453394D01*
X137141801Y-109306844D01*
X137146477Y-109296341D01*
X137213893Y-109097741D01*
X137216578Y-109086558D01*
X137246968Y-108876956D01*
X137247598Y-108869573D01*
X137249061Y-108813704D01*
X137248818Y-108806305D01*
X137229440Y-108595402D01*
X137227343Y-108584088D01*
X137170414Y-108382236D01*
X137166292Y-108371497D01*
X137073532Y-108183398D01*
X137067522Y-108173589D01*
X137010695Y-108097489D01*
X136985963Y-108030939D01*
X137001138Y-107961583D01*
X137051400Y-107911440D01*
X137111653Y-107896100D01*
X141570309Y-107896100D01*
X141638430Y-107916102D01*
X141659404Y-107933005D01*
X143129067Y-109402669D01*
X144421833Y-110695435D01*
X144434505Y-110711125D01*
X144437327Y-110714226D01*
X144442975Y-110722974D01*
X144451153Y-110729421D01*
X144467367Y-110742203D01*
X144471397Y-110745784D01*
X144471480Y-110745686D01*
X144475437Y-110749039D01*
X144479118Y-110752720D01*
X144483350Y-110755744D01*
X144483352Y-110755746D01*
X144493711Y-110763149D01*
X144498456Y-110766712D01*
X144527895Y-110789920D01*
X144527897Y-110789921D01*
X144536075Y-110796368D01*
X144544180Y-110799214D01*
X144551171Y-110804210D01*
X144592648Y-110816614D01*
X144597062Y-110817934D01*
X144602707Y-110819768D01*
X144640447Y-110833021D01*
X144640450Y-110833022D01*
X144647929Y-110835648D01*
X144653148Y-110836100D01*
X144655859Y-110836100D01*
X144658136Y-110836198D01*
X144658585Y-110836333D01*
X144658583Y-110836387D01*
X144658816Y-110836402D01*
X144664752Y-110838177D01*
X144715150Y-110836197D01*
X144720096Y-110836100D01*
X145708572Y-110836100D01*
X145728621Y-110838234D01*
X145732811Y-110838432D01*
X145742993Y-110840624D01*
X145773840Y-110836973D01*
X145779215Y-110836656D01*
X145779204Y-110836528D01*
X145784382Y-110836100D01*
X145789584Y-110836100D01*
X145800919Y-110834213D01*
X145807243Y-110833161D01*
X145813115Y-110832326D01*
X145850374Y-110827916D01*
X145850381Y-110827914D01*
X145860722Y-110826690D01*
X145868468Y-110822970D01*
X145876942Y-110821560D01*
X145916188Y-110800384D01*
X145919109Y-110798808D01*
X145924396Y-110796115D01*
X145960442Y-110778805D01*
X145960445Y-110778803D01*
X145967590Y-110775372D01*
X145971600Y-110772001D01*
X145973538Y-110770063D01*
X145975189Y-110768548D01*
X145975599Y-110768327D01*
X145975637Y-110768369D01*
X145975820Y-110768208D01*
X145981274Y-110765265D01*
X145992871Y-110752720D01*
X146015518Y-110728220D01*
X146018948Y-110724653D01*
X146229800Y-110513802D01*
X146292112Y-110479777D01*
X146362928Y-110484842D01*
X146403693Y-110509704D01*
X146503985Y-110600962D01*
X146633758Y-110671423D01*
X146776592Y-110708895D01*
X146853379Y-110710101D01*
X146916643Y-110711095D01*
X146916646Y-110711095D01*
X146924241Y-110711214D01*
X146993136Y-110695435D01*
X147060779Y-110679943D01*
X147060783Y-110679942D01*
X147068182Y-110678247D01*
X147102049Y-110661214D01*
X147193321Y-110615310D01*
X147193324Y-110615308D01*
X147200104Y-110611898D01*
X147312391Y-110515995D01*
X147316825Y-110509824D01*
X147316830Y-110509819D01*
X147317727Y-110508570D01*
X147318612Y-110507880D01*
X147321962Y-110504237D01*
X147322569Y-110504796D01*
X147373723Y-110464924D01*
X147420046Y-110456100D01*
X148018572Y-110456100D01*
X148038621Y-110458234D01*
X148042811Y-110458432D01*
X148052993Y-110460624D01*
X148083840Y-110456973D01*
X148089215Y-110456656D01*
X148089204Y-110456528D01*
X148094382Y-110456100D01*
X148099584Y-110456100D01*
X148110919Y-110454213D01*
X148117243Y-110453161D01*
X148123115Y-110452326D01*
X148160374Y-110447916D01*
X148160381Y-110447914D01*
X148170722Y-110446690D01*
X148178468Y-110442970D01*
X148186942Y-110441560D01*
X148229109Y-110418808D01*
X148234396Y-110416115D01*
X148270442Y-110398805D01*
X148270445Y-110398803D01*
X148277590Y-110395372D01*
X148281600Y-110392001D01*
X148283538Y-110390063D01*
X148285189Y-110388548D01*
X148285599Y-110388327D01*
X148285637Y-110388369D01*
X148285820Y-110388208D01*
X148291274Y-110385265D01*
X148325532Y-110348205D01*
X148328962Y-110344639D01*
X149470596Y-109203005D01*
X149532908Y-109168979D01*
X149559691Y-109166100D01*
X155920308Y-109166100D01*
X155988429Y-109186102D01*
X156009404Y-109203005D01*
X156713675Y-109907277D01*
X156747700Y-109969589D01*
X156749501Y-110012817D01*
X156745453Y-110043564D01*
X156761657Y-110190340D01*
X156764267Y-110197472D01*
X156790825Y-110270045D01*
X156812404Y-110329014D01*
X156816640Y-110335317D01*
X156816640Y-110335318D01*
X156889995Y-110444481D01*
X156894765Y-110451580D01*
X156900384Y-110456693D01*
X156900385Y-110456694D01*
X156992574Y-110540579D01*
X157003985Y-110550962D01*
X157133758Y-110621423D01*
X157276592Y-110658895D01*
X157353379Y-110660101D01*
X157416643Y-110661095D01*
X157416646Y-110661095D01*
X157424241Y-110661214D01*
X157476036Y-110649351D01*
X157560779Y-110629943D01*
X157560783Y-110629942D01*
X157568182Y-110628247D01*
X157610493Y-110606967D01*
X157693321Y-110565310D01*
X157693324Y-110565308D01*
X157700104Y-110561898D01*
X157790324Y-110484842D01*
X157806613Y-110470930D01*
X157812391Y-110465995D01*
X157898561Y-110346077D01*
X157953640Y-110209065D01*
X157963889Y-110137051D01*
X157973865Y-110066955D01*
X157973865Y-110066952D01*
X157974446Y-110062871D01*
X157974581Y-110050000D01*
X157956841Y-109903402D01*
X157904644Y-109765267D01*
X157886850Y-109739376D01*
X157825306Y-109649829D01*
X157825305Y-109649827D01*
X157821004Y-109643570D01*
X157710750Y-109545337D01*
X157704040Y-109541784D01*
X157586957Y-109479792D01*
X157586955Y-109479791D01*
X157580246Y-109476239D01*
X157533340Y-109464457D01*
X157444398Y-109442116D01*
X157444394Y-109442116D01*
X157437027Y-109440265D01*
X157429428Y-109440225D01*
X157429426Y-109440225D01*
X157304706Y-109439572D01*
X157236691Y-109419214D01*
X157216270Y-109402669D01*
X156818358Y-109004756D01*
X156408165Y-108594563D01*
X156395502Y-108578883D01*
X156392674Y-108575775D01*
X156387025Y-108567026D01*
X156362633Y-108547797D01*
X156358603Y-108544216D01*
X156358520Y-108544314D01*
X156354563Y-108540961D01*
X156350882Y-108537280D01*
X156346648Y-108534254D01*
X156336289Y-108526851D01*
X156331544Y-108523288D01*
X156302105Y-108500080D01*
X156302103Y-108500079D01*
X156293925Y-108493632D01*
X156285820Y-108490786D01*
X156278829Y-108485790D01*
X156232938Y-108472066D01*
X156227293Y-108470232D01*
X156189553Y-108456979D01*
X156189550Y-108456978D01*
X156182071Y-108454352D01*
X156176852Y-108453900D01*
X156174141Y-108453900D01*
X156171864Y-108453802D01*
X156171415Y-108453667D01*
X156171417Y-108453613D01*
X156171184Y-108453598D01*
X156165248Y-108451823D01*
X156115385Y-108453782D01*
X156114850Y-108453803D01*
X156109904Y-108453900D01*
X149411422Y-108453900D01*
X149391389Y-108451768D01*
X149387191Y-108451570D01*
X149377006Y-108449377D01*
X149366664Y-108450601D01*
X149346167Y-108453027D01*
X149340785Y-108453344D01*
X149340796Y-108453472D01*
X149335618Y-108453900D01*
X149330416Y-108453900D01*
X149319081Y-108455787D01*
X149312739Y-108456842D01*
X149306867Y-108457677D01*
X149269625Y-108462085D01*
X149269618Y-108462087D01*
X149259277Y-108463311D01*
X149251534Y-108467029D01*
X149243058Y-108468440D01*
X149200874Y-108491202D01*
X149195611Y-108493883D01*
X149152409Y-108514628D01*
X149148399Y-108517999D01*
X149146460Y-108519938D01*
X149144808Y-108521453D01*
X149144400Y-108521673D01*
X149144362Y-108521632D01*
X149144181Y-108521792D01*
X149138726Y-108524735D01*
X149131658Y-108532382D01*
X149131657Y-108532382D01*
X149104481Y-108561781D01*
X149101051Y-108565347D01*
X147959403Y-109706995D01*
X147897091Y-109741021D01*
X147870308Y-109743900D01*
X147421050Y-109743900D01*
X147352929Y-109723898D01*
X147326536Y-109701225D01*
X147325307Y-109699831D01*
X147321004Y-109693570D01*
X147210750Y-109595337D01*
X147203866Y-109591692D01*
X147086957Y-109529792D01*
X147086955Y-109529791D01*
X147080246Y-109526239D01*
X147033340Y-109514457D01*
X146944398Y-109492116D01*
X146944394Y-109492116D01*
X146937027Y-109490265D01*
X146929428Y-109490225D01*
X146929426Y-109490225D01*
X146867798Y-109489903D01*
X146789362Y-109489492D01*
X146781982Y-109491264D01*
X146781980Y-109491264D01*
X146653153Y-109522192D01*
X146653149Y-109522193D01*
X146645774Y-109523964D01*
X146514554Y-109591692D01*
X146403277Y-109688765D01*
X146398907Y-109694983D01*
X146393827Y-109700625D01*
X146391685Y-109698697D01*
X146346626Y-109734583D01*
X146299076Y-109743900D01*
X146191428Y-109743900D01*
X146171379Y-109741766D01*
X146167189Y-109741568D01*
X146157007Y-109739376D01*
X146146666Y-109740600D01*
X146126162Y-109743027D01*
X146120784Y-109743344D01*
X146120795Y-109743472D01*
X146115615Y-109743900D01*
X146110416Y-109743900D01*
X146105292Y-109744753D01*
X146105279Y-109744754D01*
X146092742Y-109746841D01*
X146086867Y-109747677D01*
X146049625Y-109752085D01*
X146049618Y-109752087D01*
X146039277Y-109753311D01*
X146031534Y-109757029D01*
X146023058Y-109758440D01*
X146013897Y-109763383D01*
X145980886Y-109781194D01*
X145975600Y-109783887D01*
X145939558Y-109801195D01*
X145939555Y-109801197D01*
X145932410Y-109804628D01*
X145928400Y-109807999D01*
X145926462Y-109809937D01*
X145924811Y-109811452D01*
X145924401Y-109811673D01*
X145924363Y-109811631D01*
X145924180Y-109811792D01*
X145918726Y-109814735D01*
X145911658Y-109822381D01*
X145911657Y-109822382D01*
X145884482Y-109851780D01*
X145881052Y-109855347D01*
X145649402Y-110086996D01*
X145587090Y-110121021D01*
X145560307Y-110123900D01*
X144909691Y-110123900D01*
X144841570Y-110103898D01*
X144820596Y-110086995D01*
X142058167Y-107324565D01*
X142045495Y-107308875D01*
X142042673Y-107305774D01*
X142037025Y-107297026D01*
X142012633Y-107277797D01*
X142008603Y-107274216D01*
X142008520Y-107274314D01*
X142004563Y-107270961D01*
X142000882Y-107267280D01*
X141996648Y-107264254D01*
X141986289Y-107256851D01*
X141981544Y-107253288D01*
X141952105Y-107230080D01*
X141952103Y-107230079D01*
X141943925Y-107223632D01*
X141935820Y-107220786D01*
X141928829Y-107215790D01*
X141882938Y-107202066D01*
X141877293Y-107200232D01*
X141839553Y-107186979D01*
X141839550Y-107186978D01*
X141832071Y-107184352D01*
X141826852Y-107183900D01*
X141824141Y-107183900D01*
X141821864Y-107183802D01*
X141821415Y-107183667D01*
X141821417Y-107183613D01*
X141821184Y-107183598D01*
X141815248Y-107181823D01*
X141765385Y-107183782D01*
X141764850Y-107183803D01*
X141759904Y-107183900D01*
X137115346Y-107183900D01*
X137047225Y-107163898D01*
X137000732Y-107110242D01*
X136990628Y-107039968D01*
X137018470Y-106977333D01*
X137036912Y-106955159D01*
X137145079Y-106762013D01*
X137162193Y-106711598D01*
X137203031Y-106653522D01*
X137268784Y-106626744D01*
X137281506Y-106626100D01*
X141718572Y-106626100D01*
X141738621Y-106628234D01*
X141742811Y-106628432D01*
X141752993Y-106630624D01*
X141783840Y-106626973D01*
X141789215Y-106626656D01*
X141789204Y-106626528D01*
X141794382Y-106626100D01*
X141799584Y-106626100D01*
X141810919Y-106624213D01*
X141817243Y-106623161D01*
X141823115Y-106622326D01*
X141860374Y-106617916D01*
X141860381Y-106617914D01*
X141870722Y-106616690D01*
X141878468Y-106612970D01*
X141886942Y-106611560D01*
X141929109Y-106588808D01*
X141934396Y-106586115D01*
X141970442Y-106568805D01*
X141970445Y-106568803D01*
X141977590Y-106565372D01*
X141981600Y-106562001D01*
X141983538Y-106560063D01*
X141985189Y-106558548D01*
X141985599Y-106558327D01*
X141985637Y-106558369D01*
X141985820Y-106558208D01*
X141991274Y-106555265D01*
X142025532Y-106518205D01*
X142028961Y-106514640D01*
X143689967Y-104853635D01*
X143704977Y-104840811D01*
X143707404Y-104839048D01*
X143774264Y-104815175D01*
X143843419Y-104831240D01*
X143870581Y-104851873D01*
X143871257Y-104852549D01*
X143877082Y-104860566D01*
X143884470Y-104865934D01*
X143885429Y-104866721D01*
X143885832Y-104867124D01*
X143887326Y-104868278D01*
X144000209Y-104960918D01*
X144005670Y-104963837D01*
X144005673Y-104963839D01*
X144049718Y-104987381D01*
X144140247Y-105035769D01*
X144146172Y-105037566D01*
X144146176Y-105037568D01*
X144211340Y-105057335D01*
X144292197Y-105081863D01*
X144450220Y-105097427D01*
X144608243Y-105081863D01*
X144689100Y-105057335D01*
X144754264Y-105037568D01*
X144754268Y-105037566D01*
X144760193Y-105035769D01*
X144850722Y-104987381D01*
X144894767Y-104963839D01*
X144894770Y-104963837D01*
X144900231Y-104960918D01*
X144905014Y-104956992D01*
X144905018Y-104956990D01*
X144968227Y-104905116D01*
X144972384Y-104902326D01*
X144972300Y-104902218D01*
X144980527Y-104895836D01*
X144989693Y-104890891D01*
X144996761Y-104883245D01*
X144996765Y-104883242D01*
X144996796Y-104883208D01*
X145009392Y-104871333D01*
X145013115Y-104868278D01*
X145014605Y-104867127D01*
X145015011Y-104866721D01*
X145015970Y-104865934D01*
X145023358Y-104860566D01*
X145028713Y-104853196D01*
X145029523Y-104852209D01*
X145029921Y-104851811D01*
X145031066Y-104850329D01*
X145040323Y-104839049D01*
X145059410Y-104815793D01*
X145062889Y-104811799D01*
X145062921Y-104811750D01*
X145062961Y-104811716D01*
X145064254Y-104810232D01*
X145070166Y-104803836D01*
X145070167Y-104803835D01*
X145070170Y-104803831D01*
X145071164Y-104804750D01*
X145073257Y-104802972D01*
X145071269Y-104801341D01*
X145119785Y-104742224D01*
X145123712Y-104737439D01*
X145131316Y-104723214D01*
X145168103Y-104654390D01*
X145198564Y-104597401D01*
X145244657Y-104445450D01*
X145260221Y-104287427D01*
X145244657Y-104129404D01*
X145198564Y-103977453D01*
X145123712Y-103837415D01*
X145071158Y-103773378D01*
X145066097Y-103766440D01*
X145063791Y-103761639D01*
X145060420Y-103757629D01*
X145058480Y-103755689D01*
X145056968Y-103754041D01*
X145056746Y-103753630D01*
X145056788Y-103753592D01*
X145056628Y-103753411D01*
X145053684Y-103747954D01*
X145046005Y-103740855D01*
X145034134Y-103728263D01*
X145031049Y-103724505D01*
X145029921Y-103723044D01*
X145029528Y-103722651D01*
X145028713Y-103721658D01*
X145023359Y-103714289D01*
X145008414Y-103703431D01*
X144993386Y-103690594D01*
X144599977Y-103297185D01*
X144565951Y-103234873D01*
X144571016Y-103164058D01*
X144613563Y-103107222D01*
X144680083Y-103082411D01*
X144737288Y-103091680D01*
X144740558Y-103093034D01*
X144746020Y-103095954D01*
X144751945Y-103097751D01*
X144751949Y-103097753D01*
X144803452Y-103113376D01*
X144897970Y-103142048D01*
X145055993Y-103157612D01*
X145214016Y-103142048D01*
X145308534Y-103113376D01*
X145360037Y-103097753D01*
X145360041Y-103097751D01*
X145365966Y-103095954D01*
X145506004Y-103021103D01*
X145570027Y-102968561D01*
X145576981Y-102963488D01*
X145581785Y-102961181D01*
X145585795Y-102957810D01*
X145593617Y-102949988D01*
X145602779Y-102941683D01*
X145618732Y-102928591D01*
X145622837Y-102925419D01*
X145623115Y-102925136D01*
X145631539Y-102919013D01*
X145641655Y-102904611D01*
X145655666Y-102887938D01*
X145933353Y-102610248D01*
X147997319Y-100546283D01*
X148059631Y-100512258D01*
X148088390Y-100509394D01*
X148153769Y-100510421D01*
X148196644Y-100511095D01*
X148196647Y-100511095D01*
X148204241Y-100511214D01*
X148268119Y-100496584D01*
X148340779Y-100479943D01*
X148340783Y-100479942D01*
X148348182Y-100478247D01*
X148368954Y-100467800D01*
X148473321Y-100415310D01*
X148473324Y-100415308D01*
X148480104Y-100411898D01*
X148592391Y-100315995D01*
X148596825Y-100309824D01*
X148596830Y-100309819D01*
X148597727Y-100308570D01*
X148598612Y-100307880D01*
X148601962Y-100304237D01*
X148602569Y-100304796D01*
X148653723Y-100264924D01*
X148700046Y-100256100D01*
X152716955Y-100256100D01*
X152785076Y-100276102D01*
X152831569Y-100329758D01*
X152842348Y-100369750D01*
X152845422Y-100400962D01*
X152854840Y-100496584D01*
X152898075Y-100639110D01*
X152900991Y-100644565D01*
X152900992Y-100644568D01*
X152965366Y-100765003D01*
X152968284Y-100770462D01*
X153062770Y-100885593D01*
X153177901Y-100980079D01*
X153183359Y-100982996D01*
X153183360Y-100982997D01*
X153303795Y-101047371D01*
X153303798Y-101047372D01*
X153309253Y-101050288D01*
X153451779Y-101093523D01*
X153583267Y-101106473D01*
X153590615Y-101107416D01*
X153599999Y-101108902D01*
X153600001Y-101108902D01*
X153609385Y-101107416D01*
X153616733Y-101106473D01*
X153748221Y-101093523D01*
X153890747Y-101050288D01*
X153896202Y-101047372D01*
X153896205Y-101047371D01*
X154016640Y-100982997D01*
X154016641Y-100982996D01*
X154022099Y-100980079D01*
X154137230Y-100885593D01*
X154231716Y-100770462D01*
X154234634Y-100765003D01*
X154299008Y-100644568D01*
X154299009Y-100644565D01*
X154301925Y-100639110D01*
X154345160Y-100496584D01*
X154352109Y-100426027D01*
X154353664Y-100416085D01*
X154355648Y-100410434D01*
X154356100Y-100405215D01*
X154356100Y-100391692D01*
X154356707Y-100379338D01*
X154357652Y-100369746D01*
X154384237Y-100303915D01*
X154442192Y-100262907D01*
X154483045Y-100256100D01*
X158069026Y-100256100D01*
X158137147Y-100276102D01*
X158162345Y-100297979D01*
X158164765Y-100301580D01*
X158189603Y-100324181D01*
X158262312Y-100390340D01*
X158273985Y-100400962D01*
X158403758Y-100471423D01*
X158546592Y-100508895D01*
X158623379Y-100510101D01*
X158686643Y-100511095D01*
X158686646Y-100511095D01*
X158694241Y-100511214D01*
X158758119Y-100496584D01*
X158830779Y-100479943D01*
X158830783Y-100479942D01*
X158838182Y-100478247D01*
X158858954Y-100467800D01*
X158963321Y-100415310D01*
X158963324Y-100415308D01*
X158970104Y-100411898D01*
X159082391Y-100315995D01*
X159168561Y-100196077D01*
X159204260Y-100107275D01*
X159220805Y-100066118D01*
X159220806Y-100066116D01*
X159223640Y-100059065D01*
X159240708Y-99939137D01*
X159243865Y-99916955D01*
X159243865Y-99916952D01*
X159244446Y-99912871D01*
X159244581Y-99900000D01*
X159226841Y-99753402D01*
X159174644Y-99615267D01*
X159154567Y-99586055D01*
X159095306Y-99499829D01*
X159095305Y-99499827D01*
X159091004Y-99493570D01*
X159064822Y-99470242D01*
X158997006Y-99409821D01*
X158980750Y-99395337D01*
X158973866Y-99391692D01*
X158856957Y-99329792D01*
X158856955Y-99329791D01*
X158850246Y-99326239D01*
X158803340Y-99314457D01*
X158714398Y-99292116D01*
X158714394Y-99292116D01*
X158707027Y-99290265D01*
X158699428Y-99290225D01*
X158699426Y-99290225D01*
X158637798Y-99289903D01*
X158559362Y-99289492D01*
X158551982Y-99291264D01*
X158551980Y-99291264D01*
X158423153Y-99322192D01*
X158423149Y-99322193D01*
X158415774Y-99323964D01*
X158284554Y-99391692D01*
X158278832Y-99396684D01*
X158278830Y-99396685D01*
X158229592Y-99439638D01*
X158173277Y-99488765D01*
X158168907Y-99494983D01*
X158163827Y-99500625D01*
X158161685Y-99498697D01*
X158116626Y-99534583D01*
X158069076Y-99543900D01*
X154437946Y-99543900D01*
X154418235Y-99542349D01*
X154409794Y-99541012D01*
X154400001Y-99539461D01*
X154390208Y-99541012D01*
X154390106Y-99541012D01*
X154383264Y-99541890D01*
X154330001Y-99547136D01*
X154251779Y-99554840D01*
X154109253Y-99598075D01*
X154103798Y-99600991D01*
X154103795Y-99600992D01*
X154018630Y-99646514D01*
X153977901Y-99668284D01*
X153862770Y-99762770D01*
X153768284Y-99877901D01*
X153765367Y-99883359D01*
X153765366Y-99883360D01*
X153711122Y-99984844D01*
X153661370Y-100035492D01*
X153592133Y-100051202D01*
X153525394Y-100026986D01*
X153488878Y-99984844D01*
X153434634Y-99883360D01*
X153434633Y-99883359D01*
X153431716Y-99877901D01*
X153337230Y-99762770D01*
X153222099Y-99668284D01*
X153181370Y-99646514D01*
X153096205Y-99600992D01*
X153096202Y-99600991D01*
X153090747Y-99598075D01*
X152948221Y-99554840D01*
X152877664Y-99547891D01*
X152867722Y-99546336D01*
X152862071Y-99544352D01*
X152856852Y-99543900D01*
X152843329Y-99543900D01*
X152830981Y-99543293D01*
X152816735Y-99541890D01*
X152809894Y-99541012D01*
X152809792Y-99541012D01*
X152799999Y-99539461D01*
X152790206Y-99541012D01*
X152781765Y-99542349D01*
X152762054Y-99543900D01*
X150016178Y-99543900D01*
X149948057Y-99523898D01*
X149901564Y-99470242D01*
X149891460Y-99399968D01*
X149913856Y-99344374D01*
X149926887Y-99326239D01*
X149948561Y-99296077D01*
X150003640Y-99159065D01*
X150009876Y-99115244D01*
X150023865Y-99016955D01*
X150023865Y-99016952D01*
X150024446Y-99012871D01*
X150024581Y-99000000D01*
X150019967Y-98961873D01*
X150031640Y-98891845D01*
X150055959Y-98857642D01*
X150750596Y-98163005D01*
X150812908Y-98128979D01*
X150839691Y-98126100D01*
X158470309Y-98126100D01*
X158538430Y-98146102D01*
X158559404Y-98163005D01*
X159253674Y-98857275D01*
X159287700Y-98919587D01*
X159289501Y-98962816D01*
X159285453Y-98993564D01*
X159301657Y-99140340D01*
X159304267Y-99147472D01*
X159345280Y-99259546D01*
X159352404Y-99279014D01*
X159356640Y-99285317D01*
X159356640Y-99285318D01*
X159428121Y-99391692D01*
X159434765Y-99401580D01*
X159440384Y-99406693D01*
X159440385Y-99406694D01*
X159535861Y-99493570D01*
X159543985Y-99500962D01*
X159673758Y-99571423D01*
X159816592Y-99608895D01*
X159893379Y-99610101D01*
X159956643Y-99611095D01*
X159956646Y-99611095D01*
X159964241Y-99611214D01*
X160029455Y-99596278D01*
X160100779Y-99579943D01*
X160100783Y-99579942D01*
X160108182Y-99578247D01*
X160128954Y-99567800D01*
X160233321Y-99515310D01*
X160233324Y-99515308D01*
X160240104Y-99511898D01*
X160352391Y-99415995D01*
X160438561Y-99296077D01*
X160493640Y-99159065D01*
X160499876Y-99115244D01*
X160513865Y-99016955D01*
X160513865Y-99016952D01*
X160514446Y-99012871D01*
X160514581Y-99000000D01*
X160496841Y-98853402D01*
X160444644Y-98715267D01*
X160404153Y-98656352D01*
X160365306Y-98599829D01*
X160365305Y-98599827D01*
X160361004Y-98593570D01*
X160250750Y-98495337D01*
X160243866Y-98491692D01*
X160126957Y-98429792D01*
X160126955Y-98429791D01*
X160120246Y-98426239D01*
X160043756Y-98407026D01*
X159984398Y-98392116D01*
X159984394Y-98392116D01*
X159977027Y-98390265D01*
X159969428Y-98390225D01*
X159969426Y-98390225D01*
X159844706Y-98389572D01*
X159776691Y-98369214D01*
X159756270Y-98352669D01*
X158958165Y-97554563D01*
X158945502Y-97538883D01*
X158942674Y-97535775D01*
X158937025Y-97527026D01*
X158912633Y-97507797D01*
X158908603Y-97504216D01*
X158908520Y-97504314D01*
X158904563Y-97500961D01*
X158900882Y-97497280D01*
X158896648Y-97494254D01*
X158886289Y-97486851D01*
X158881544Y-97483288D01*
X158852105Y-97460080D01*
X158852103Y-97460079D01*
X158843925Y-97453632D01*
X158835820Y-97450786D01*
X158828829Y-97445790D01*
X158782938Y-97432066D01*
X158777293Y-97430232D01*
X158739553Y-97416979D01*
X158739550Y-97416978D01*
X158732071Y-97414352D01*
X158726852Y-97413900D01*
X158724141Y-97413900D01*
X158721864Y-97413802D01*
X158721415Y-97413667D01*
X158721417Y-97413613D01*
X158721184Y-97413598D01*
X158715248Y-97411823D01*
X158665385Y-97413782D01*
X158664850Y-97413803D01*
X158659904Y-97413900D01*
X150691432Y-97413900D01*
X150671371Y-97411765D01*
X150667187Y-97411568D01*
X150657007Y-97409376D01*
X150627182Y-97412906D01*
X150626160Y-97413027D01*
X150620785Y-97413344D01*
X150620796Y-97413472D01*
X150615618Y-97413900D01*
X150610416Y-97413900D01*
X150599081Y-97415787D01*
X150592757Y-97416839D01*
X150586885Y-97417674D01*
X150549626Y-97422084D01*
X150549619Y-97422086D01*
X150539278Y-97423310D01*
X150531532Y-97427030D01*
X150523058Y-97428440D01*
X150486633Y-97448094D01*
X150480891Y-97451192D01*
X150475604Y-97453885D01*
X150439558Y-97471195D01*
X150439555Y-97471197D01*
X150432410Y-97474628D01*
X150428400Y-97477999D01*
X150426462Y-97479937D01*
X150424811Y-97481452D01*
X150424401Y-97481673D01*
X150424363Y-97481631D01*
X150424180Y-97481792D01*
X150418726Y-97484735D01*
X150411658Y-97492382D01*
X150411657Y-97492382D01*
X150384481Y-97521781D01*
X150381051Y-97525348D01*
X149553159Y-98353239D01*
X149490847Y-98387264D01*
X149463405Y-98390141D01*
X149395071Y-98389784D01*
X149339362Y-98389492D01*
X149331982Y-98391264D01*
X149331980Y-98391264D01*
X149203153Y-98422192D01*
X149203149Y-98422193D01*
X149195774Y-98423964D01*
X149064554Y-98491692D01*
X148953277Y-98588765D01*
X148948907Y-98594983D01*
X148943827Y-98600625D01*
X148941685Y-98598697D01*
X148896626Y-98634583D01*
X148849076Y-98643900D01*
X145981432Y-98643900D01*
X145961371Y-98641765D01*
X145957187Y-98641568D01*
X145947007Y-98639376D01*
X145916160Y-98643027D01*
X145910785Y-98643344D01*
X145910796Y-98643472D01*
X145905618Y-98643900D01*
X145900416Y-98643900D01*
X145889081Y-98645787D01*
X145882757Y-98646839D01*
X145876885Y-98647674D01*
X145839626Y-98652084D01*
X145839619Y-98652086D01*
X145829278Y-98653310D01*
X145821532Y-98657030D01*
X145813058Y-98658440D01*
X145774452Y-98679270D01*
X145770891Y-98681192D01*
X145765604Y-98683885D01*
X145729558Y-98701195D01*
X145729555Y-98701197D01*
X145722410Y-98704628D01*
X145718400Y-98707999D01*
X145716462Y-98709937D01*
X145714811Y-98711452D01*
X145714401Y-98711673D01*
X145714363Y-98711631D01*
X145714180Y-98711792D01*
X145708726Y-98714735D01*
X145701658Y-98722382D01*
X145701657Y-98722382D01*
X145674469Y-98751794D01*
X145671039Y-98755360D01*
X144079602Y-100346796D01*
X144017290Y-100380822D01*
X143946474Y-100375757D01*
X143889639Y-100333210D01*
X143864828Y-100266690D01*
X143864514Y-100256378D01*
X143864538Y-100254134D01*
X143864538Y-100254129D01*
X143864581Y-100250000D01*
X143846841Y-100103402D01*
X143794644Y-99965267D01*
X143732263Y-99874502D01*
X143715306Y-99849829D01*
X143715305Y-99849827D01*
X143711004Y-99843570D01*
X143600750Y-99745337D01*
X143594040Y-99741784D01*
X143476957Y-99679792D01*
X143476955Y-99679791D01*
X143470246Y-99676239D01*
X143423340Y-99664457D01*
X143334398Y-99642116D01*
X143334394Y-99642116D01*
X143327027Y-99640265D01*
X143319428Y-99640225D01*
X143319426Y-99640225D01*
X143194705Y-99639572D01*
X143126690Y-99619214D01*
X143106270Y-99602669D01*
X142529704Y-99026102D01*
X141938167Y-98434565D01*
X141925495Y-98418875D01*
X141922673Y-98415774D01*
X141917025Y-98407026D01*
X141892633Y-98387797D01*
X141888603Y-98384216D01*
X141888520Y-98384314D01*
X141884563Y-98380961D01*
X141880882Y-98377280D01*
X141876648Y-98374254D01*
X141866289Y-98366851D01*
X141861544Y-98363288D01*
X141832105Y-98340080D01*
X141832103Y-98340079D01*
X141823925Y-98333632D01*
X141815820Y-98330786D01*
X141808829Y-98325790D01*
X141762938Y-98312066D01*
X141757293Y-98310232D01*
X141719553Y-98296979D01*
X141719550Y-98296978D01*
X141712071Y-98294352D01*
X141706852Y-98293900D01*
X141704141Y-98293900D01*
X141701864Y-98293802D01*
X141701415Y-98293667D01*
X141701417Y-98293613D01*
X141701184Y-98293598D01*
X141695248Y-98291823D01*
X141645385Y-98293782D01*
X141644850Y-98293803D01*
X141639904Y-98293900D01*
X137420499Y-98293900D01*
X137352378Y-98273898D01*
X137305885Y-98220242D01*
X137294499Y-98167900D01*
X137294499Y-97674934D01*
X137279734Y-97600699D01*
X137260682Y-97572185D01*
X137230377Y-97526832D01*
X137223484Y-97516516D01*
X137139301Y-97460266D01*
X137065067Y-97445500D01*
X136040166Y-97445500D01*
X135014934Y-97445501D01*
X134980499Y-97452350D01*
X134952874Y-97457844D01*
X134952872Y-97457845D01*
X134940699Y-97460266D01*
X134930379Y-97467161D01*
X134930378Y-97467162D01*
X134889833Y-97494254D01*
X134856516Y-97516516D01*
X134800266Y-97600699D01*
X134785500Y-97674933D01*
X134785500Y-97992824D01*
X134765498Y-98060945D01*
X134711842Y-98107438D01*
X134641568Y-98117542D01*
X134576988Y-98088048D01*
X134546494Y-98048552D01*
X134533960Y-98023134D01*
X134533957Y-98023130D01*
X134531405Y-98017954D01*
X134398953Y-97840579D01*
X134394717Y-97836663D01*
X134240634Y-97694231D01*
X134240632Y-97694229D01*
X134236394Y-97690312D01*
X134049174Y-97572185D01*
X133843562Y-97490154D01*
X133837905Y-97489029D01*
X133837899Y-97489027D01*
X133632111Y-97448094D01*
X133632109Y-97448094D01*
X133626444Y-97446967D01*
X133620669Y-97446891D01*
X133620665Y-97446891D01*
X133509341Y-97445434D01*
X133405091Y-97444069D01*
X133399394Y-97445048D01*
X133399393Y-97445048D01*
X133192614Y-97480579D01*
X133186917Y-97481558D01*
X132979228Y-97558179D01*
X132974267Y-97561131D01*
X132974266Y-97561131D01*
X132887298Y-97612872D01*
X132788980Y-97671365D01*
X132622544Y-97817325D01*
X132618977Y-97821850D01*
X132618972Y-97821855D01*
X132524735Y-97941395D01*
X132485494Y-97991172D01*
X132482805Y-97996283D01*
X132482803Y-97996286D01*
X132434525Y-98088048D01*
X132382420Y-98187083D01*
X132316774Y-98398498D01*
X132290755Y-98618335D01*
X132305233Y-98839233D01*
X132359724Y-99053793D01*
X132452404Y-99254830D01*
X132580167Y-99435611D01*
X132584301Y-99439638D01*
X132689266Y-99541890D01*
X132738736Y-99590082D01*
X132743532Y-99593287D01*
X132743535Y-99593289D01*
X132813780Y-99640225D01*
X132922800Y-99713070D01*
X132928103Y-99715348D01*
X132928106Y-99715350D01*
X133120892Y-99798177D01*
X133120895Y-99798178D01*
X133126195Y-99800455D01*
X133131824Y-99801729D01*
X133132379Y-99801909D01*
X133190984Y-99841982D01*
X133218622Y-99907379D01*
X133206515Y-99977335D01*
X133158510Y-100029642D01*
X133137058Y-100039952D01*
X132979228Y-100098179D01*
X132788980Y-100211365D01*
X132622544Y-100357325D01*
X132618977Y-100361850D01*
X132618972Y-100361855D01*
X132583409Y-100406967D01*
X132485494Y-100531172D01*
X132482805Y-100536283D01*
X132482803Y-100536286D01*
X132471403Y-100557954D01*
X132382420Y-100727083D01*
X132316774Y-100938498D01*
X132290755Y-101158335D01*
X132305233Y-101379233D01*
X132359724Y-101593793D01*
X132452404Y-101794830D01*
X132580167Y-101975611D01*
X132584301Y-101979638D01*
X132722779Y-102114537D01*
X132738736Y-102130082D01*
X132743532Y-102133287D01*
X132743535Y-102133289D01*
X132873307Y-102220000D01*
X132922800Y-102253070D01*
X132928103Y-102255348D01*
X132928106Y-102255350D01*
X133120892Y-102338177D01*
X133120895Y-102338178D01*
X133126195Y-102340455D01*
X133131824Y-102341729D01*
X133132379Y-102341909D01*
X133190984Y-102381982D01*
X133218622Y-102447379D01*
X133206515Y-102517335D01*
X133158510Y-102569642D01*
X133137058Y-102579952D01*
X132979228Y-102638179D01*
X132974267Y-102641131D01*
X132974266Y-102641131D01*
X132838535Y-102721883D01*
X132788980Y-102751365D01*
X132622544Y-102897325D01*
X132618977Y-102901850D01*
X132618972Y-102901855D01*
X132572204Y-102961181D01*
X132485494Y-103071172D01*
X132482805Y-103076283D01*
X132482803Y-103076286D01*
X132471509Y-103097753D01*
X132382420Y-103267083D01*
X132316774Y-103478498D01*
X132316095Y-103484233D01*
X132316095Y-103484234D01*
X132313098Y-103509557D01*
X132290755Y-103698335D01*
X132305233Y-103919233D01*
X132359724Y-104133793D01*
X132452404Y-104334830D01*
X132580167Y-104515611D01*
X132584301Y-104519638D01*
X132716045Y-104647977D01*
X132738736Y-104670082D01*
X132743532Y-104673287D01*
X132743535Y-104673289D01*
X132846704Y-104742224D01*
X132922800Y-104793070D01*
X132928103Y-104795348D01*
X132928106Y-104795350D01*
X133120892Y-104878177D01*
X133120895Y-104878178D01*
X133126195Y-104880455D01*
X133131824Y-104881729D01*
X133132379Y-104881909D01*
X133190984Y-104921982D01*
X133218622Y-104987379D01*
X133206515Y-105057335D01*
X133158510Y-105109642D01*
X133137058Y-105119952D01*
X132979228Y-105178179D01*
X132788980Y-105291365D01*
X132622544Y-105437325D01*
X132618977Y-105441850D01*
X132618972Y-105441855D01*
X132524735Y-105561395D01*
X132485494Y-105611172D01*
X132482805Y-105616283D01*
X132482803Y-105616286D01*
X132471403Y-105637954D01*
X132382420Y-105807083D01*
X132316774Y-106018498D01*
X132290755Y-106238335D01*
X129704000Y-106238335D01*
X129704000Y-95220000D01*
X129724002Y-95151879D01*
X129777658Y-95105386D01*
X129830000Y-95094000D01*
X167170000Y-95094000D01*
X167238121Y-95114002D01*
G37*
%TD.AperFunction*%
%TD*%
M02*
